<?xml version="1.0" encoding="UTF-8" standalone="no"?>
<!-- Created with Inkscape (http://www.inkscape.org/) -->

<svg
   xmlns:dc="http://purl.org/dc/elements/1.1/"
   xmlns:cc="http://creativecommons.org/ns#"
   xmlns:rdf="http://www.w3.org/1999/02/22-rdf-syntax-ns#"
   xmlns:svg="http://www.w3.org/2000/svg"
   xmlns="http://www.w3.org/2000/svg"
   xmlns:sodipodi="http://sodipodi.sourceforge.net/DTD/sodipodi-0.dtd"
   xmlns:inkscape="http://www.inkscape.org/namespaces/inkscape"
   width="64mm"
   height="64mm"
   viewBox="0 0 226.77166 226.77166"
   id="svg2"
   version="1.1"
   inkscape:version="0.91 r13725"
   sodipodi:docname="Button 1.svg"
   inkscape:export-filename="C:\Users\Abi\Documents\CandySiege\Images\Main Menu\Button 1.png"
   inkscape:export-xdpi="90"
   inkscape:export-ydpi="90">
  <defs
     id="defs4" />
  <sodipodi:namedview
     id="base"
     pagecolor="#ffffff"
     bordercolor="#000000"
     borderopacity="1"
     inkscape:pageopacity="0"
     inkscape:pageshadow="2"
     inkscape:zoom="1"
     inkscape:cx="-41.234708"
     inkscape:cy="90.157157"
     inkscape:document-units="px"
     inkscape:current-layer="layer1"
     showgrid="false"
     inkscape:showpageshadow="false"
     inkscape:window-width="685"
     inkscape:window-height="730"
     inkscape:window-x="0"
     inkscape:window-y="0"
     inkscape:window-maximized="0"
     showguides="false">
    <sodipodi:guide
       position="-72.124894,7.0710681"
       orientation="1,0"
       id="guide4268" />
  </sodipodi:namedview>
  <metadata
     id="metadata7">
    <rdf:RDF>
      <cc:Work
         rdf:about="">
        <dc:format>image/svg+xml</dc:format>
        <dc:type
           rdf:resource="http://purl.org/dc/dcmitype/StillImage" />
        <dc:title></dc:title>
      </cc:Work>
    </rdf:RDF>
  </metadata>
  <g
     inkscape:label="Layer 1"
     inkscape:groupmode="layer"
     id="layer1"
     transform="translate(0,-825.59055)">
    <flowRoot
       xml:space="preserve"
       id="flowRoot4186"
       style="fill:black;stroke:none;stroke-opacity:1;stroke-width:1px;stroke-linejoin:miter;stroke-linecap:butt;fill-opacity:1;font-family:sans-serif;font-style:normal;font-weight:normal;font-size:40px;line-height:125%;letter-spacing:0px;word-spacing:0px"><flowRegion
         id="flowRegion4188"><rect
           id="rect4190"
           width="149"
           height="57"
           x="43"
           y="-141.22835" /></flowRegion><flowPara
         id="flowPara4192" /></flowRoot>    <flowRoot
       xml:space="preserve"
       id="flowRoot4194"
       style="font-style:normal;font-weight:normal;font-size:40px;line-height:125%;font-family:sans-serif;letter-spacing:0px;word-spacing:0px;fill:#000000;fill-opacity:1;stroke:none;stroke-width:1px;stroke-linecap:butt;stroke-linejoin:miter;stroke-opacity:1"
       transform="translate(0,825.59055)"><flowRegion
         id="flowRegion4196"><rect
           id="rect4198"
           width="142"
           height="41"
           x="42"
           y="-152.22835" /></flowRegion><flowPara
         id="flowPara4200">OP</flowPara></flowRoot>    <flowRoot
       xml:space="preserve"
       id="flowRoot4202"
       style="fill:black;stroke:none;stroke-opacity:1;stroke-width:1px;stroke-linejoin:miter;stroke-linecap:butt;fill-opacity:1;font-family:sans-serif;font-style:normal;font-weight:normal;font-size:40px;line-height:125%;letter-spacing:0px;word-spacing:0px"><flowRegion
         id="flowRegion4204"><rect
           id="rect4206"
           width="147"
           height="103"
           x="63"
           y="-87.228348" /></flowRegion><flowPara
         id="flowPara4208" /></flowRoot>    <flowRoot
       xml:space="preserve"
       id="flowRoot4214"
       style="fill:black;stroke:none;stroke-opacity:1;stroke-width:1px;stroke-linejoin:miter;stroke-linecap:butt;fill-opacity:1;font-family:sans-serif;font-style:normal;font-weight:normal;font-size:40px;line-height:125%;letter-spacing:0px;word-spacing:0px"><flowRegion
         id="flowRegion4216"><rect
           id="rect4218"
           width="191"
           height="43"
           x="23"
           y="-150.22835" /></flowRegion><flowPara
         id="flowPara4220" /></flowRoot>    <text
       xml:space="preserve"
       style="font-style:normal;font-weight:normal;font-size:40px;line-height:125%;font-family:sans-serif;letter-spacing:0px;word-spacing:0px;fill:#000000;fill-opacity:1;stroke:none;stroke-width:1px;stroke-linecap:butt;stroke-linejoin:miter;stroke-opacity:1"
       x="97"
       y="692.36218"
       id="text4222"
       sodipodi:linespacing="125%"><tspan
         sodipodi:role="line"
         id="tspan4224"
         x="97"
         y="692.36218" /></text>
    <path
       style="fill:none;fill-rule:evenodd;stroke:#000000;stroke-width:4.15786457;stroke-linecap:butt;stroke-linejoin:miter;stroke-miterlimit:4;stroke-dasharray:none;stroke-opacity:1"
       d="m 29.051913,946.47191 c -4.572843,2.76515 52.916439,7.47586 3.088781,69.95909 55.246351,14.3012 108.065636,10.4911 159.386126,-4.5032 -19.40257,-21.96416 -30.16623,-51.5483 0.0471,-68.98508"
       id="path4230"
       inkscape:connector-curvature="0"
       sodipodi:nodetypes="cccc" />
    <path
       style="fill:none;fill-rule:evenodd;stroke:#000000;stroke-width:4.15786457;stroke-linecap:butt;stroke-linejoin:miter;stroke-miterlimit:4;stroke-dasharray:none;stroke-opacity:1"
       d="M 31.787943,948.57538 C -29.363603,919.75269 28.622634,832.9199 70.2805,889.15351"
       id="path4232"
       inkscape:connector-curvature="0"
       sodipodi:nodetypes="cc" />
    <path
       style="fill:none;fill-rule:evenodd;stroke:#000000;stroke-width:4.15786457;stroke-linecap:butt;stroke-linejoin:miter;stroke-miterlimit:4;stroke-dasharray:none;stroke-opacity:1"
       d="m 188.69218,944.44272 c 63.47892,-33.55374 8.49598,-132.88906 -32.56989,-72.04498"
       id="path4232-5"
       inkscape:connector-curvature="0"
       sodipodi:nodetypes="cc" />
    <path
       style="fill:none;fill-rule:evenodd;stroke:#000000;stroke-width:4.15786457;stroke-linecap:butt;stroke-linejoin:miter;stroke-miterlimit:4;stroke-dasharray:none;stroke-opacity:1"
       d="m 69.091468,899.74999 c 3.860835,-97.85164 114.540212,-83.48264 82.721902,-2.95238"
       id="path4232-8"
       inkscape:connector-curvature="0"
       sodipodi:nodetypes="cc" />
    <path
       style="fill:none;fill-rule:evenodd;stroke:#000000;stroke-width:4.15786457;stroke-linecap:butt;stroke-linejoin:miter;stroke-miterlimit:4;stroke-dasharray:none;stroke-opacity:1"
       d="m 25.507984,1038.2362 c 49.09007,16.2698 127.683576,10.6567 167.088056,-2.1216"
       id="path4270"
       inkscape:connector-curvature="0"
       sodipodi:nodetypes="cc" />
    <path
       style="fill:none;fill-rule:evenodd;stroke:#000000;stroke-width:4.15786457;stroke-linecap:butt;stroke-linejoin:miter;stroke-miterlimit:4;stroke-dasharray:none;stroke-opacity:1"
       d="m 32.074769,1015.9323 -5.135666,24.2285"
       id="path4274"
       inkscape:connector-curvature="0" />
    <path
       style="fill:none;fill-rule:evenodd;stroke:#000000;stroke-width:4.15786457;stroke-linecap:butt;stroke-linejoin:miter;stroke-miterlimit:4;stroke-dasharray:none;stroke-opacity:1"
       d="m 190.93929,1010.4905 1.79537,27.1909"
       id="path4276"
       inkscape:connector-curvature="0" />
    <path
       style="fill:none;fill-rule:evenodd;stroke:#000000;stroke-width:2.07893229;stroke-linecap:butt;stroke-linejoin:miter;stroke-miterlimit:4;stroke-dasharray:none;stroke-opacity:1"
       d="m 69.876921,999.12067 c -7.248122,4.82493 -9.025489,13.65033 -11.807071,21.74153"
       id="path4280"
       inkscape:connector-curvature="0"
       sodipodi:nodetypes="cc" />
    <path
       style="fill:none;fill-rule:evenodd;stroke:#000000;stroke-width:2.07893229;stroke-linecap:butt;stroke-linejoin:miter;stroke-miterlimit:4;stroke-dasharray:none;stroke-opacity:1"
       d="m 155.227,993.65617 c 5.76708,5.38321 11.26975,11.28913 12.79278,25.06033"
       id="path4280-4"
       inkscape:connector-curvature="0"
       sodipodi:nodetypes="cc" />
    <path
       style="fill:none;fill-rule:evenodd;stroke:#000000;stroke-width:2.07893229;stroke-linecap:butt;stroke-linejoin:miter;stroke-miterlimit:4;stroke-dasharray:none;stroke-opacity:1"
       d="m 83.219321,1025.5153 c -0.651807,-9.6078 0.327543,-18.5776 7.20565,-24.11"
       id="path4332"
       inkscape:connector-curvature="0"
       sodipodi:nodetypes="cc" />
    <path
       style="fill:none;fill-rule:evenodd;stroke:#000000;stroke-width:2.07893229;stroke-linecap:butt;stroke-linejoin:miter;stroke-miterlimit:4;stroke-dasharray:none;stroke-opacity:1"
       d="m 136.75319,999.41579 c 4.46816,7.03681 7.08275,14.48501 6.11998,22.72571"
       id="path4334"
       inkscape:connector-curvature="0"
       sodipodi:nodetypes="cc" />
    <path
       style="color:#000000;clip-rule:nonzero;display:inline;overflow:visible;visibility:visible;opacity:1;isolation:auto;mix-blend-mode:normal;color-interpolation:sRGB;color-interpolation-filters:linearRGB;solid-color:#000000;solid-opacity:1;fill:#c8beb7;fill-opacity:0.86666667;fill-rule:evenodd;stroke:#000000;stroke-width:3.87703657;stroke-linecap:butt;stroke-linejoin:miter;stroke-miterlimit:4;stroke-dasharray:none;stroke-dashoffset:0;stroke-opacity:1;color-rendering:auto;image-rendering:auto;shape-rendering:auto;text-rendering:auto;enable-background:accumulate"
       d="m 73.893286,1044.5675 c -14.860968,-1.1587 -17.09054,-1.4924 -33.066766,-4.9477 -8.876207,-1.9198 -10.770543,-2.6256 -10.378745,-3.8675 0.263602,-0.8355 1.118229,-4.8857 1.89917,-9.0005 1.139698,-6.0051 1.714543,-7.3804 2.913039,-6.9699 3.886529,1.3314 24.88557,5.0428 35.275695,6.2348 36.535451,4.1913 76.360621,0.7394 116.308021,-10.0811 1.70912,-0.463 1.75572,-0.2496 2.86509,13.1206 0.49907,6.0148 1.25454,5.5452 -14.34459,8.9175 -30.73591,6.6445 -68.96236,9.1285 -101.470914,6.5938 z"
       id="path4354"
       inkscape:connector-curvature="0" />
    <path
       style="color:#000000;clip-rule:nonzero;display:inline;overflow:visible;visibility:visible;opacity:1;isolation:auto;mix-blend-mode:normal;color-interpolation:sRGB;color-interpolation-filters:linearRGB;solid-color:#000000;solid-opacity:1;fill:#c8beb7;fill-opacity:0.86666667;fill-rule:evenodd;stroke:#000000;stroke-width:3.87703657;stroke-linecap:butt;stroke-linejoin:miter;stroke-miterlimit:4;stroke-dasharray:none;stroke-dashoffset:0;stroke-opacity:1;color-rendering:auto;image-rendering:auto;shape-rendering:auto;text-rendering:auto;enable-background:accumulate"
       d="m 79.240578,1021.7658 c -1.062963,-0.1342 -5.765746,-0.6291 -10.450631,-1.0998 l -8.517978,-0.8555 0.744097,-3.0007 c 1.24057,-5.003 4.590355,-11.5513 7.27258,-14.2169 2.853013,-2.83513 2.475397,-5.24707 -0.58167,-3.71515 -2.50742,1.25635 -6.391177,7.75435 -8.689174,14.53785 -1.029414,3.0388 -2.337075,5.5134 -2.905909,5.4991 -1.629233,-0.044 -18.346674,-3.611 -18.769586,-4.0085 -0.208888,-0.1965 1.238594,-2.658 3.216627,-5.4702 C 53.654726,990.81758 57.952422,974.2337 52.640521,962.81579 49.464214,955.98834 45.37248,952.4544 33.792473,946.53718 16.021303,937.45633 8.6170958,927.33772 8.2304784,911.60404 7.9365292,899.64156 11.542542,890.81154 20.368771,881.88108 c 5.788252,-5.85662 12.189403,-8.49104 20.190542,-8.30952 8.379831,0.19011 13.751829,2.76157 21.34032,10.21518 l 5.278081,5.18427 -0.401416,5.47782 c -0.385569,5.26157 -0.306064,5.48037 2.013985,5.54271 2.273583,0.0611 2.462845,-0.31811 3.223462,-6.45825 2.72661,-22.01087 9.015209,-36.48179 20.640799,-47.4973 19.843336,-18.80202 48.808936,-15.10832 59.189226,7.54782 2.40136,5.24123 2.52469,6.28198 2.15128,18.15425 -0.31499,10.01538 -0.83659,13.80373 -2.54721,18.50079 l -2.15109,5.90653 2.2897,1.11846 c 2.04391,0.99841 2.40586,0.83627 3.37196,-1.51048 1.56448,-3.80035 3.85668,-13.29525 4.79779,-19.87372 0.71803,-5.01917 1.35544,-6.23633 5.42491,-10.35917 7.09008,-7.18306 12.24857,-9.63614 19.83485,-9.43233 5.11689,0.13748 7.12966,0.6887 10.73323,2.93947 14.68008,9.16905 22.45999,31.4463 17.75356,50.83608 -3.04545,12.54682 -9.37618,21.09447 -22.31448,30.1287 -14.66286,10.23839 -19.34137,16.65942 -20.58623,28.25363 -1.1457,10.6707 3.22219,24.09921 11.7486,36.11948 2.82499,3.9827 3.82467,6.1296 3.04459,6.5383 -0.63879,0.3347 -3.89131,1.2377 -7.22788,2.0069 -3.33653,0.7691 -6.69052,1.6188 -7.45332,1.8882 -0.96825,0.342 -1.81859,-0.898 -2.817,-4.1082 -3.00081,-9.6482 -10.50371,-19.74335 -12.9504,-17.42467 -0.92536,0.87693 -0.32897,2.07183 2.67009,5.34974 3.90984,4.27323 7.00544,9.94283 8.00394,14.65893 0.53428,2.5238 0.37945,2.6165 -6.51224,3.9069 -3.88275,0.7272 -8.63446,1.5513 -10.55938,1.8315 l -3.49983,0.5095 -0.93175,-5.3849 c -1.15001,-6.6464 -5.13453,-15.29937 -7.06891,-15.35134 -1.97777,-0.0531 -1.84322,0.96699 0.79,5.99064 2.1977,4.1926 4.67269,14.1855 3.73379,15.0751 -1.16466,1.1038 -23.33035,2.7159 -39.47474,2.8709 l -17.84542,0.1715 0.704555,-6.5621 c 0.563488,-5.2482 1.321154,-7.3886 3.784315,-10.6911 3.269315,-4.3834 2.684524,-6.70913 -0.92198,-3.667 -2.964217,2.5004 -5.076043,7.5837 -5.914897,14.2379 -0.637005,5.0528 -0.979319,5.7665 -2.663595,5.5536 z"
       id="path4368"
       inkscape:connector-curvature="0" />
    <text
       xml:space="preserve"
       style="font-style:normal;font-weight:normal;font-size:64.27827454px;line-height:125%;font-family:sans-serif;letter-spacing:0px;word-spacing:0px;fill:#000000;fill-opacity:1;stroke:none;stroke-width:1px;stroke-linecap:butt;stroke-linejoin:miter;stroke-opacity:1"
       x="30.434391"
       y="946.36749"
       id="text4309"
       sodipodi:linespacing="125%"
       transform="matrix(0.99735291,-0.00832309,0.00930184,1.0025765,0,0)"><tspan
         sodipodi:role="line"
         id="tspan4311"
         x="30.434391"
         y="946.36749"
         style="font-style:normal;font-variant:normal;font-weight:normal;font-stretch:normal;font-family:'Rhum Banane';-inkscape-font-specification:'Rhum Banane'">START</tspan></text>
  </g>
</svg>
