<?xml version="1.0" encoding="UTF-8" standalone="no"?>
<!-- Created with Inkscape (http://www.inkscape.org/) -->

<svg
   xmlns:dc="http://purl.org/dc/elements/1.1/"
   xmlns:cc="http://creativecommons.org/ns#"
   xmlns:rdf="http://www.w3.org/1999/02/22-rdf-syntax-ns#"
   xmlns:svg="http://www.w3.org/2000/svg"
   xmlns="http://www.w3.org/2000/svg"
   xmlns:sodipodi="http://sodipodi.sourceforge.net/DTD/sodipodi-0.dtd"
   xmlns:inkscape="http://www.inkscape.org/namespaces/inkscape"
   width="64mm"
   height="64mm"
   viewBox="0 0 226.77166 226.77166"
   id="svg2"
   version="1.1"
   inkscape:version="0.91 r13725"
   sodipodi:docname="Button 2.svg"
   enable-background="new">
  <defs
     id="defs4">
    <filter
       inkscape:collect="always"
       style="color-interpolation-filters:sRGB"
       id="filter4191">
      <feBlend
         inkscape:collect="always"
         mode="multiply"
         in2="BackgroundImage"
         id="feBlend4193" />
    </filter>
  </defs>
  <sodipodi:namedview
     id="base"
     pagecolor="#ffffff"
     bordercolor="#000000"
     borderopacity="1"
     inkscape:pageopacity="0"
     inkscape:pageshadow="2"
     inkscape:zoom="2.0000001"
     inkscape:cx="179.35555"
     inkscape:cy="123.53255"
     inkscape:document-units="px"
     inkscape:current-layer="layer3"
     showgrid="false"
     inkscape:showpageshadow="false"
     inkscape:window-width="1366"
     inkscape:window-height="746"
     inkscape:window-x="-8"
     inkscape:window-y="-8"
     inkscape:window-maximized="1"
     showguides="false" />
  <metadata
     id="metadata7">
    <rdf:RDF>
      <cc:Work
         rdf:about="">
        <dc:format>image/svg+xml</dc:format>
        <dc:type
           rdf:resource="http://purl.org/dc/dcmitype/StillImage" />
        <dc:title />
      </cc:Work>
    </rdf:RDF>
  </metadata>
  <g
     inkscape:groupmode="layer"
     id="layer2"
     inkscape:label="Original 1"
     style="display:inline"
     sodipodi:insensitive="true">
    <path
       style="color:#000000;clip-rule:nonzero;display:inline;overflow:visible;visibility:visible;opacity:1;isolation:auto;mix-blend-mode:normal;color-interpolation:sRGB;color-interpolation-filters:linearRGB;solid-color:#000000;solid-opacity:1;fill:#a05a2c;fill-opacity:0.98039216;fill-rule:nonzero;stroke:#000000;stroke-width:4.00000048;stroke-linecap:butt;stroke-linejoin:miter;stroke-miterlimit:4;stroke-dasharray:none;stroke-dashoffset:0;stroke-opacity:1;color-rendering:auto;image-rendering:auto;shape-rendering:auto;text-rendering:auto;enable-background:accumulate"
       d="m 101.05249,142.47859 c -20.784385,-0.95084 -40.349495,-3.35137 -61.551365,-7.552 -8.780462,-1.73964 -8.390044,-1.52155 -11.195682,-6.25398 -4.367801,-7.36743 -4.038284,-15.23319 0.949541,-22.66611 2.63367,-3.92473 2.208829,-3.68437 8.870612,-5.01872 40.554779,-8.123112 82.111274,-9.11945 124.981124,-2.996488 10.56322,1.508711 31.03551,5.409578 33.1094,6.308788 0.91405,0.39632 3.4336,6.56298 4.25427,10.41242 0.6419,3.01092 0.44175,8.51173 -0.42464,11.67053 -0.60608,2.20972 -3.104,8.24043 -3.6318,8.76823 -0.69475,0.69475 -20.55967,3.82096 -33.13046,5.21384 -19.85263,2.19974 -43.09285,2.98902 -62.231,2.11349 z"
       id="path4158"
       inkscape:connector-curvature="0" />
    <path
       style="color:#000000;clip-rule:nonzero;display:inline;overflow:visible;visibility:visible;opacity:1;isolation:auto;mix-blend-mode:normal;color-interpolation:sRGB;color-interpolation-filters:linearRGB;solid-color:#000000;solid-opacity:1;fill:#a05a2c;fill-opacity:0.98039216;fill-rule:evenodd;stroke:#000000;stroke-width:4.00000048;stroke-linecap:round;stroke-linejoin:miter;stroke-miterlimit:4;stroke-dasharray:none;stroke-dashoffset:0;stroke-opacity:1;color-rendering:auto;image-rendering:auto;shape-rendering:auto;text-rendering:auto;enable-background:accumulate"
       d="M 15.785108,127.04009 7.5867558,126.9384 5.9491089,125.08871 c -4.7867031,-5.4065 -4.6931222,-9.45519 0.3467298,-15.00093 l 1.8097447,-1.99141 8.6433676,0.0851 c 4.753852,0.0468 8.690179,0.13191 8.747393,0.18912 0.05721,0.0572 -0.221502,0.9299 -0.619368,1.93929 -2.069821,5.25118 -1.993128,10.7076 0.232006,16.50621 0.123338,0.32141 -0.03726,0.46087 -0.468977,0.40724 -0.361099,-0.0449 -4.345803,-0.1273 -8.854897,-0.18324 z"
       id="path4254"
       inkscape:connector-curvature="0" />
    <path
       style="color:#000000;clip-rule:nonzero;display:inline;overflow:visible;visibility:visible;opacity:1;isolation:auto;mix-blend-mode:normal;color-interpolation:sRGB;color-interpolation-filters:linearRGB;solid-color:#000000;solid-opacity:1;fill:#a05a2c;fill-opacity:0.98039216;fill-rule:evenodd;stroke:#000000;stroke-width:4.00000048;stroke-linecap:round;stroke-linejoin:miter;stroke-miterlimit:4;stroke-dasharray:none;stroke-dashoffset:0;stroke-opacity:1;color-rendering:auto;image-rendering:auto;shape-rendering:auto;text-rendering:auto;enable-background:accumulate"
       d="m 203.50019,128.45844 c -1.02089,-0.0714 -1.85616,-0.27076 -1.85616,-0.44299 0,-0.17223 0.25385,-1.39693 0.56411,-2.72156 0.78114,-3.33505 0.52777,-10.36774 -0.48575,-13.48274 l -0.72736,-2.23548 9.37758,0.11416 9.37758,0.11416 1.95886,2.10505 c 4.6194,4.96414 4.54057,8.90432 -0.29247,14.61936 l -1.85261,2.19069 -7.10381,-0.0654 c -3.9071,-0.036 -7.93908,-0.12383 -8.95997,-0.19525 z"
       id="path4256"
       inkscape:connector-curvature="0" />
    <text
       xml:space="preserve"
       style="font-style:normal;font-weight:normal;font-size:40px;line-height:125%;font-family:sans-serif;letter-spacing:0px;word-spacing:0px;fill:#000000;fill-opacity:1;stroke:none;stroke-width:1px;stroke-linecap:butt;stroke-linejoin:miter;stroke-opacity:1"
       x="50.5"
       y="132.77168"
       id="text4213"
       sodipodi:linespacing="125%"><tspan
         sodipodi:role="line"
         id="tspan4215"
         x="50.5"
         y="132.77168"
         style="font-style:normal;font-variant:normal;font-weight:normal;font-stretch:normal;font-family:'Rhum Banane';-inkscape-font-specification:'Rhum Banane'">OPTIONS</tspan></text>
  </g>
  <g
     inkscape:label="Shadow"
     inkscape:groupmode="layer"
     id="layer1"
     transform="translate(0,-825.59055)"
     style="display:inline;opacity:0.33599997;filter:url(#filter4191)"
     sodipodi:insensitive="true">
    <flowRoot
       xml:space="preserve"
       id="flowRoot4186"
       style="font-style:normal;font-weight:normal;font-size:40px;line-height:125%;font-family:sans-serif;letter-spacing:0px;word-spacing:0px;fill:#000000;fill-opacity:1;stroke:none;stroke-width:1px;stroke-linecap:butt;stroke-linejoin:miter;stroke-opacity:1"><flowRegion
         id="flowRegion4188"><rect
           id="rect4190"
           width="149"
           height="57"
           x="43"
           y="-141.22835" /></flowRegion><flowPara
         id="flowPara4192" /></flowRoot>    <flowRoot
       xml:space="preserve"
       id="flowRoot4194"
       style="font-style:normal;font-weight:normal;font-size:40px;line-height:125%;font-family:sans-serif;letter-spacing:0px;word-spacing:0px;fill:#000000;fill-opacity:1;stroke:none;stroke-width:1px;stroke-linecap:butt;stroke-linejoin:miter;stroke-opacity:1"
       transform="translate(0,825.59055)"><flowRegion
         id="flowRegion4196"><rect
           id="rect4198"
           width="142"
           height="41"
           x="42"
           y="-152.22835" /></flowRegion><flowPara
         id="flowPara4200">OP</flowPara></flowRoot>    <flowRoot
       xml:space="preserve"
       id="flowRoot4202"
       style="font-style:normal;font-weight:normal;font-size:40px;line-height:125%;font-family:sans-serif;letter-spacing:0px;word-spacing:0px;fill:#000000;fill-opacity:1;stroke:none;stroke-width:1px;stroke-linecap:butt;stroke-linejoin:miter;stroke-opacity:1"><flowRegion
         id="flowRegion4204"><rect
           id="rect4206"
           width="147"
           height="103"
           x="63"
           y="-87.228348" /></flowRegion><flowPara
         id="flowPara4208" /></flowRoot>    <flowRoot
       xml:space="preserve"
       id="flowRoot4214"
       style="font-style:normal;font-weight:normal;font-size:40px;line-height:125%;font-family:sans-serif;letter-spacing:0px;word-spacing:0px;fill:#000000;fill-opacity:1;stroke:none;stroke-width:1px;stroke-linecap:butt;stroke-linejoin:miter;stroke-opacity:1"><flowRegion
         id="flowRegion4216"><rect
           id="rect4218"
           width="191"
           height="43"
           x="23"
           y="-150.22835" /></flowRegion><flowPara
         id="flowPara4220" /></flowRoot>    <text
       xml:space="preserve"
       style="font-style:normal;font-weight:normal;font-size:40px;line-height:125%;font-family:sans-serif;letter-spacing:0px;word-spacing:0px;fill:#000000;fill-opacity:1;stroke:none;stroke-width:1px;stroke-linecap:butt;stroke-linejoin:miter;stroke-opacity:1"
       x="97"
       y="692.36218"
       id="text4222"
       sodipodi:linespacing="125%"><tspan
         sodipodi:role="line"
         id="tspan4224"
         x="97"
         y="692.36218" /></text>
    <path
       style="color:#000000;clip-rule:nonzero;display:inline;overflow:visible;visibility:visible;opacity:1;isolation:auto;mix-blend-mode:normal;color-interpolation:sRGB;color-interpolation-filters:linearRGB;solid-color:#000000;solid-opacity:1;fill:#757575;fill-opacity:0.98039216;fill-rule:evenodd;stroke:#000000;stroke-width:1.89429128;stroke-linecap:round;stroke-linejoin:miter;stroke-miterlimit:4;stroke-dasharray:none;stroke-dashoffset:0;stroke-opacity:0;color-rendering:auto;image-rendering:auto;shape-rendering:auto;text-rendering:auto;enable-background:accumulate"
       d="m 99.988978,968.3056 c -18.772229,-0.51185 -41.447678,-3.31231 -60.646476,-7.48995 -9.270302,-2.01722 -9.264001,-2.01278 -12.166664,-8.55894 -2.119674,-4.78033 -2.457683,-9.05359 -1.109257,-14.02369 0.890762,-3.28322 3.663304,-8.78434 5.030457,-9.98115 0.830678,-0.72718 12.919106,-3.3283 22.812452,-4.90864 39.576397,-6.32187 78.4847,-4.54341 120.60082,5.51252 1.96933,0.47022 3.80811,1.10308 4.08616,1.40637 0.27806,0.30328 1.15628,2.46805 1.95159,4.81061 1.70034,5.00822 2.19688,10.40067 1.38377,15.02769 -0.52038,2.96126 -2.76372,9.7725 -3.48429,10.57898 -0.90935,1.01779 -24.19836,4.76378 -38.60378,6.20936 -6.7558,0.67794 -32.57085,1.90444 -34.48387,1.63836 -0.36925,-0.0513 -2.78616,-0.15103 -5.370912,-0.22152 z"
       id="path4216"
       inkscape:connector-curvature="0" />
    <path
       style="color:#000000;clip-rule:nonzero;display:inline;overflow:visible;visibility:visible;opacity:1;isolation:auto;mix-blend-mode:normal;color-interpolation:sRGB;color-interpolation-filters:linearRGB;solid-color:#000000;solid-opacity:1;fill:#757575;fill-opacity:0.98039216;fill-rule:evenodd;stroke:#000000;stroke-width:1.6631012;stroke-linecap:round;stroke-linejoin:miter;stroke-miterlimit:4;stroke-dasharray:none;stroke-dashoffset:0;stroke-opacity:0;color-rendering:auto;image-rendering:auto;shape-rendering:auto;text-rendering:auto;enable-background:accumulate"
       d="m 201.65014,951.61426 c 0.61209,-3.54419 0.5813,-9.47996 -0.0687,-13.24766 -0.29034,-1.68294 -0.45383,-3.17113 -0.36329,-3.30711 0.0905,-0.13597 3.00298,-0.0799 6.47212,0.12456 l 6.30751,0.3718 1.34799,2.5429 c 2.55245,4.81503 2.50205,8.162 -0.19942,13.24439 l -1.55739,2.92996 -6.19899,0 -6.199,0 0.45918,-2.65884 z"
       id="path4218"
       inkscape:connector-curvature="0" />
    <path
       style="color:#000000;clip-rule:nonzero;display:inline;overflow:visible;visibility:visible;opacity:1;isolation:auto;mix-blend-mode:normal;color-interpolation:sRGB;color-interpolation-filters:linearRGB;solid-color:#000000;solid-opacity:1;fill:#757575;fill-opacity:0.98039216;fill-rule:evenodd;stroke:none;stroke-width:2;stroke-linecap:round;stroke-linejoin:miter;stroke-miterlimit:4;stroke-dasharray:none;stroke-dashoffset:0;stroke-opacity:0;color-rendering:auto;image-rendering:auto;shape-rendering:auto;text-rendering:auto;enable-background:accumulate"
       d="m 6.1719357,125.12665 c -1.918993,-1.97252 -3.849292,-5.66649 -3.8678498,-7.40182 -0.015648,-1.46328 2.2179721,-5.63696 4.2317704,-7.90738 l 1.715588,-1.93421 8.2439687,0.19901 c 4.534182,0.10946 8.359463,0.31451 8.500624,0.45567 0.141161,0.14116 -0.184251,1.6733 -0.723138,3.40474 -1.229054,3.94896 -1.245252,8.94609 -0.04031,12.43399 l 0.906844,2.625 -8.571693,0 -8.5716922,0 -1.8241171,-1.875 z"
       id="path4220"
       inkscape:connector-curvature="0"
       transform="translate(0,825.59055)" />
    <text
       xml:space="preserve"
       style="font-style:normal;font-weight:normal;font-size:40px;line-height:125%;font-family:sans-serif;letter-spacing:0px;word-spacing:0px;fill:#000000;fill-opacity:1;stroke:none;stroke-width:1px;stroke-linecap:butt;stroke-linejoin:miter;stroke-opacity:1"
       x="52.999996"
       y="948.36218"
       id="text4209"
       sodipodi:linespacing="125%"><tspan
         sodipodi:role="line"
         id="tspan4211"
         x="52.999996"
         y="948.36218" /></text>
  </g>
  <g
     inkscape:groupmode="layer"
     id="layer3"
     inkscape:label="Highlight"
     style="display:inline">
    <path
       style="color:#000000;clip-rule:nonzero;display:inline;overflow:visible;visibility:visible;opacity:1;isolation:auto;mix-blend-mode:normal;color-interpolation:sRGB;color-interpolation-filters:linearRGB;solid-color:#000000;solid-opacity:1;fill:none;fill-opacity:0.98039216;fill-rule:nonzero;stroke:#ffff00;stroke-width:4.00000048;stroke-linecap:butt;stroke-linejoin:miter;stroke-miterlimit:4;stroke-dasharray:none;stroke-dashoffset:0;stroke-opacity:1;color-rendering:auto;image-rendering:auto;shape-rendering:auto;text-rendering:auto;enable-background:accumulate"
       d="m 100.46771,138.3499 c -20.784385,-0.95084 -40.349496,-3.35137 -61.551367,-7.552 -8.780463,-1.73964 -8.390045,-1.52155 -11.195683,-6.25398 -4.367801,-7.36743 -4.038284,-15.23319 0.949541,-22.66611 2.63367,-3.92473 2.208829,-3.68437 8.870613,-5.01872 40.554781,-8.123111 82.111276,-9.11945 124.981126,-2.99649 10.56322,1.50871 31.03551,5.40958 33.1094,6.30879 0.91405,0.39632 3.4336,6.56298 4.25427,10.41242 0.6419,3.01092 0.44175,8.51173 -0.42464,11.67053 -0.60608,2.20972 -3.104,8.24043 -3.6318,8.76823 -0.69475,0.69475 -20.55967,3.82096 -33.13046,5.21384 -19.85263,2.19974 -43.09285,2.98902 -62.231,2.11349 z"
       id="path4158-4"
       inkscape:connector-curvature="0" />
    <path
       style="color:#000000;clip-rule:nonzero;display:inline;overflow:visible;visibility:visible;opacity:1;isolation:auto;mix-blend-mode:normal;color-interpolation:sRGB;color-interpolation-filters:linearRGB;solid-color:#000000;solid-opacity:1;fill:none;fill-opacity:0.98039216;fill-rule:evenodd;stroke:#ffff00;stroke-width:4.00000048;stroke-linecap:round;stroke-linejoin:miter;stroke-miterlimit:4;stroke-dasharray:none;stroke-dashoffset:0;stroke-opacity:1;color-rendering:auto;image-rendering:auto;shape-rendering:auto;text-rendering:auto;enable-background:accumulate"
       d="m 14.200324,122.9114 -8.1983526,-0.10169 -1.637647,-1.84969 c -4.78670343,-5.4065 -4.69312253,-9.45519 0.3467298,-15.00093 l 1.8097448,-1.99141 8.643368,0.0851 c 4.753852,0.0468 8.69018,0.13191 8.747394,0.18912 0.05721,0.0572 -0.221502,0.9299 -0.619368,1.93929 -2.069821,5.25118 -1.993128,10.7076 0.232006,16.50621 0.123338,0.32141 -0.03726,0.46087 -0.468977,0.40724 -0.361099,-0.0449 -4.345804,-0.1273 -8.854898,-0.18324 z"
       id="path4254-0"
       inkscape:connector-curvature="0" />
    <path
       style="color:#000000;clip-rule:nonzero;display:inline;overflow:visible;visibility:visible;opacity:1;isolation:auto;mix-blend-mode:normal;color-interpolation:sRGB;color-interpolation-filters:linearRGB;solid-color:#000000;solid-opacity:1;fill:none;fill-opacity:0.98039216;fill-rule:evenodd;stroke:#ffff00;stroke-width:4.00000048;stroke-linecap:round;stroke-linejoin:miter;stroke-miterlimit:4;stroke-dasharray:none;stroke-dashoffset:0;stroke-opacity:1;color-rendering:auto;image-rendering:auto;shape-rendering:auto;text-rendering:auto;enable-background:accumulate"
       d="m 202.41541,124.82975 c -1.02089,-0.0714 -1.85616,-0.27076 -1.85616,-0.44299 0,-0.17223 0.25385,-1.39693 0.56411,-2.72156 0.78114,-3.33505 0.52777,-10.36774 -0.48575,-13.48274 l -0.72736,-2.23548 9.37758,0.11416 9.37758,0.11416 1.95886,2.10505 c 4.61941,4.96414 4.54058,8.90432 -0.29247,14.61936 l -1.85261,2.19069 -7.10381,-0.0654 c -3.9071,-0.036 -7.93908,-0.12383 -8.95997,-0.19525 z"
       id="path4256-3"
       inkscape:connector-curvature="0" />
    <text
       xml:space="preserve"
       style="font-style:normal;font-weight:normal;font-size:40px;line-height:125%;font-family:sans-serif;letter-spacing:0px;word-spacing:0px;display:inline;fill:#000000;fill-opacity:1;stroke:#ffff00;stroke-width:1px;stroke-linecap:butt;stroke-linejoin:miter;stroke-opacity:1"
       x="50.915218"
       y="128.64299"
       id="text4213-8"
       sodipodi:linespacing="125%"><tspan
         sodipodi:role="line"
         id="tspan4215-4"
         x="50.915218"
         y="128.64299"
         style="font-style:normal;font-variant:normal;font-weight:normal;font-stretch:normal;font-family:'Rhum Banane';-inkscape-font-specification:'Rhum Banane';stroke:#ffff00;stroke-opacity:1">OPTIONS</tspan></text>
  </g>
</svg>
