<?xml version="1.0" encoding="UTF-8" standalone="no"?>
<!-- Created with Inkscape (http://www.inkscape.org/) -->

<svg
   xmlns:dc="http://purl.org/dc/elements/1.1/"
   xmlns:cc="http://creativecommons.org/ns#"
   xmlns:rdf="http://www.w3.org/1999/02/22-rdf-syntax-ns#"
   xmlns:svg="http://www.w3.org/2000/svg"
   xmlns="http://www.w3.org/2000/svg"
   xmlns:xlink="http://www.w3.org/1999/xlink"
   xmlns:sodipodi="http://sodipodi.sourceforge.net/DTD/sodipodi-0.dtd"
   xmlns:inkscape="http://www.inkscape.org/namespaces/inkscape"
   width="800"
   height="600"
   viewBox="0 0 800.00001 600.00001"
   id="svg2"
   version="1.1"
   inkscape:version="0.91 r13725"
   sodipodi:docname="Table Level.svg">
  <defs
     id="defs4">
    <symbol
       id="g4772">
      <path
         style="color:#000000;clip-rule:nonzero;display:inline;overflow:visible;visibility:visible;opacity:1;isolation:auto;mix-blend-mode:normal;color-interpolation:sRGB;color-interpolation-filters:linearRGB;solid-color:#000000;solid-opacity:1;fill:#ff6000;fill-opacity:1;fill-rule:evenodd;stroke:none;stroke-width:0.25253814;stroke-linecap:butt;stroke-linejoin:miter;stroke-miterlimit:4;stroke-dasharray:none;stroke-dashoffset:0;stroke-opacity:1;color-rendering:auto;image-rendering:auto;shape-rendering:auto;text-rendering:auto;enable-background:accumulate"
         d="m 8.9949184,1047.7108 c 0,-0.1042 -0.2678304,-0.6813 -0.5951784,-1.284 -0.7371766,-1.3574 -2.214198,-3.0213 -3.4237579,-3.857 l -0.9151669,-0.6322 2.4309614,-0.8639 c 2.1756436,-0.7731 2.4487294,-0.8372 2.6001383,-0.6118 0.093048,0.1387 0.3763165,0.5718 0.6294864,0.9627 0.2531702,0.3908 0.6699537,0.8882 0.9261867,1.1055 l 0.465876,0.3946 -0.942141,2.4872 c -0.8418128,2.2223 -1.1764046,2.8761 -1.1764046,2.2989 z"
         id="path4737"
         inkscape:connector-curvature="0" />
      <path
         style="color:#000000;clip-rule:nonzero;display:inline;overflow:visible;visibility:visible;opacity:1;isolation:auto;mix-blend-mode:normal;color-interpolation:sRGB;color-interpolation-filters:linearRGB;solid-color:#000000;solid-opacity:1;fill:#ff6000;fill-opacity:1;fill-rule:evenodd;stroke:none;stroke-width:0.25253814;stroke-linecap:butt;stroke-linejoin:miter;stroke-miterlimit:4;stroke-dasharray:none;stroke-dashoffset:0;stroke-opacity:1;color-rendering:auto;image-rendering:auto;shape-rendering:auto;text-rendering:auto;enable-background:accumulate"
         d="m 22.418527,1031.9176 c -0.366772,-0.6363 -1.694021,-1.9878 -1.952088,-1.9878 -0.0826,0 -0.150181,-0.072 -0.150181,-0.1585 0,-0.2014 1.720982,-4.4123 1.869517,-4.5743 0.06096,-0.066 0.180056,0.081 0.264652,0.3276 0.486064,1.4176 2.36719,3.6379 4.015837,4.7398 0.498569,0.3332 0.906489,0.6445 0.906489,0.6916 0,0.047 -1.035973,0.4193 -2.302164,0.8272 l -2.302165,0.7414 -0.349897,-0.607 z"
         id="path4739"
         inkscape:connector-curvature="0" />
      <ellipse
         style="color:#000000;clip-rule:nonzero;display:inline;overflow:visible;visibility:visible;opacity:1;isolation:auto;mix-blend-mode:normal;color-interpolation:sRGB;color-interpolation-filters:linearRGB;solid-color:#000000;solid-opacity:1;fill:#c33801;fill-opacity:1;fill-rule:evenodd;stroke:#000000;stroke-width:1.65414536;stroke-linecap:butt;stroke-linejoin:miter;stroke-miterlimit:4;stroke-dasharray:none;stroke-dashoffset:0;stroke-opacity:1;color-rendering:auto;image-rendering:auto;shape-rendering:auto;text-rendering:auto;enable-background:accumulate"
         id="path4711"
         cx="-507.46005"
         cy="846.54132"
         rx="7.305335"
         ry="5.2644124"
         transform="matrix(0.80199931,-0.59732496,0.49952744,0.86629806,0,0)" />
      <path
         style="fill:none;fill-rule:evenodd;stroke:#000000;stroke-width:1.61483634;stroke-linecap:butt;stroke-linejoin:miter;stroke-miterlimit:4;stroke-dasharray:none;stroke-opacity:1"
         d="m 19.623911,1029.8197 2.83325,-6.7635 c 0.53298,3.2133 2.157628,6.0756 6.99512,7.9049 l -6.96651,2.2129"
         id="path4713"
         inkscape:connector-curvature="0"
         sodipodi:nodetypes="cccc" />
      <path
         style="fill:none;fill-rule:evenodd;stroke:#000000;stroke-width:1.5387435;stroke-linecap:butt;stroke-linejoin:miter;stroke-miterlimit:4;stroke-dasharray:none;stroke-opacity:1"
         d="m 11.673638,1043.1426 -2.6866689,6.4761 c -0.5054053,-3.0767 -2.0460021,-5.8175 -6.6332232,-7.569 l 6.6060932,-2.1189"
         id="path4713-9"
         inkscape:connector-curvature="0"
         sodipodi:nodetypes="cccc" />
      <path
         style="fill:none;fill-rule:evenodd;stroke:#000000;stroke-width:1px;stroke-linecap:butt;stroke-linejoin:miter;stroke-opacity:1"
         d="m 11.111678,1034.1795 c 0,0 5.808377,3.9143 6.502857,7.4498"
         id="path4743"
         inkscape:connector-curvature="0" />
      <path
         style="fill:none;fill-rule:evenodd;stroke:#000000;stroke-width:1px;stroke-linecap:butt;stroke-linejoin:miter;stroke-opacity:1"
         d="m 10.101526,1036.1366 c -0.7262199,0.1038 3.604057,2.0196 5.366435,6.0609"
         id="path4745"
         inkscape:connector-curvature="0"
         sodipodi:nodetypes="cc" />
      <path
         style="fill:none;fill-rule:evenodd;stroke:#000000;stroke-width:1px;stroke-linecap:butt;stroke-linejoin:miter;stroke-opacity:1"
         d="m 20.754393,1038.081 c 0,0 -5.808377,-3.9143 -6.502857,-7.4498"
         id="path4743-2"
         inkscape:connector-curvature="0" />
      <path
         style="fill:none;fill-rule:evenodd;stroke:#000000;stroke-width:1px;stroke-linecap:butt;stroke-linejoin:miter;stroke-opacity:1"
         d="m 21.764545,1036.1239 c 0.72622,-0.1038 -3.604057,-2.0196 -5.366435,-6.0609"
         id="path4745-9"
         inkscape:connector-curvature="0"
         sodipodi:nodetypes="cc" />
      <path
         style="color:#000000;clip-rule:nonzero;display:inline;overflow:visible;visibility:visible;opacity:1;isolation:auto;mix-blend-mode:normal;color-interpolation:sRGB;color-interpolation-filters:linearRGB;solid-color:#000000;solid-opacity:1;fill:#ff6000;fill-opacity:1;fill-rule:evenodd;stroke:none;stroke-width:2;stroke-linecap:butt;stroke-linejoin:miter;stroke-miterlimit:4;stroke-dasharray:none;stroke-dashoffset:0;stroke-opacity:1;color-rendering:auto;image-rendering:auto;shape-rendering:auto;text-rendering:auto;enable-background:accumulate"
         d="m 15.59331,20.897192 c -0.807924,-1.534779 -2.298911,-3.162487 -4.228072,-4.615782 -0.294449,-0.221817 -0.545366,-0.410897 -0.557594,-0.420177 -0.03335,-0.02531 0.574849,-1.161443 0.621745,-1.161443 0.02227,0 0.379472,0.270486 0.793778,0.601079 1.414705,1.128858 2.920312,2.623384 3.687644,3.660502 0.359644,0.486093 0.948413,1.518862 0.948413,1.663627 0,0.07634 -0.324445,0.255756 -0.805069,0.4452 l -0.306232,0.120705 -0.154613,-0.293711 z"
         id="path4768"
         inkscape:connector-curvature="0"
         transform="translate(0,1020.3622)" />
      <path
         style="color:#000000;clip-rule:nonzero;display:inline;overflow:visible;visibility:visible;opacity:1;isolation:auto;mix-blend-mode:normal;color-interpolation:sRGB;color-interpolation-filters:linearRGB;solid-color:#000000;solid-opacity:1;fill:#ff6000;fill-opacity:1;fill-rule:evenodd;stroke:none;stroke-width:2;stroke-linecap:butt;stroke-linejoin:miter;stroke-miterlimit:4;stroke-dasharray:none;stroke-dashoffset:0;stroke-opacity:1;color-rendering:auto;image-rendering:auto;shape-rendering:auto;text-rendering:auto;enable-background:accumulate"
         d="m 20.167419,16.645528 c -1.310554,-0.984197 -3.025637,-2.588692 -3.824677,-3.578062 -0.372048,-0.46067 -1.125016,-1.569596 -1.125016,-1.656857 0,-0.05007 0.561266,-0.298031 0.928058,-0.41 l 0.265146,-0.08094 0.362453,0.544734 c 0.902209,1.355936 2.163912,2.619532 3.949355,3.955284 0.461507,0.345269 0.482661,0.371891 0.422748,0.532042 -0.137559,0.367705 -0.456268,1.020904 -0.498121,1.020904 -0.02441,0 -0.240381,-0.147198 -0.479946,-0.327106 z"
         id="path4770"
         inkscape:connector-curvature="0"
         transform="translate(0,1020.3622)" />
    </symbol>
  </defs>
  <sodipodi:namedview
     id="base"
     pagecolor="#ffffff"
     bordercolor="#666666"
     borderopacity="1.0"
     inkscape:pageopacity="0.0"
     inkscape:pageshadow="2"
     inkscape:zoom="0.7"
     inkscape:cx="362.53028"
     inkscape:cy="306.42318"
     inkscape:document-units="px"
     inkscape:current-layer="layer4"
     showgrid="true"
     units="px"
     inkscape:showpageshadow="false"
     inkscape:window-width="1366"
     inkscape:window-height="705"
     inkscape:window-x="-32000"
     inkscape:window-y="-32000"
     inkscape:window-maximized="0">
    <inkscape:grid
       type="xygrid"
       id="grid4138"
       spacingx="32"
       spacingy="32.000001"
       originy="600.00001"
       visible="true"
       enabled="false" />
  </sodipodi:namedview>
  <metadata
     id="metadata7">
    <rdf:RDF>
      <cc:Work
         rdf:about="">
        <dc:format>image/svg+xml</dc:format>
        <dc:type
           rdf:resource="http://purl.org/dc/dcmitype/StillImage" />
        <dc:title></dc:title>
      </cc:Work>
    </rdf:RDF>
  </metadata>
  <g
     inkscape:label="Table Border"
     inkscape:groupmode="layer"
     id="layer1"
     transform="translate(0,-452.36216)"
     sodipodi:insensitive="true">
    <rect
       style="color:#000000;clip-rule:nonzero;display:inline;overflow:visible;visibility:visible;opacity:1;isolation:auto;mix-blend-mode:normal;color-interpolation:sRGB;color-interpolation-filters:linearRGB;solid-color:#000000;solid-opacity:1;fill:#663300;fill-opacity:1;fill-rule:evenodd;stroke:#663300;stroke-width:10.36941051;stroke-linecap:butt;stroke-linejoin:miter;stroke-miterlimit:4;stroke-dasharray:none;stroke-dashoffset:0;stroke-opacity:1;color-rendering:auto;image-rendering:auto;shape-rendering:auto;text-rendering:auto;enable-background:accumulate"
       id="rect4136"
       width="789.63049"
       height="524.63055"
       x="5.1847405"
       y="522.54688" />
  </g>
  <g
     inkscape:groupmode="layer"
     id="layer2"
     inkscape:label="Table"
     sodipodi:insensitive="true">
    <rect
       style="color:#000000;clip-rule:nonzero;display:inline;overflow:visible;visibility:visible;opacity:1;isolation:auto;mix-blend-mode:normal;color-interpolation:sRGB;color-interpolation-filters:linearRGB;solid-color:#000000;solid-opacity:1;fill:#814d26;fill-opacity:1;fill-rule:evenodd;stroke:#814d26;stroke-width:10.29448795;stroke-linecap:butt;stroke-linejoin:miter;stroke-miterlimit:4;stroke-dasharray:none;stroke-dashoffset:0;stroke-opacity:1;color-rendering:auto;image-rendering:auto;shape-rendering:auto;text-rendering:auto;enable-background:accumulate"
       id="rect4141"
       width="789.70557"
       height="494.70551"
       x="5.1472254"
       y="100.14725" />
  </g>
  <g
     inkscape:groupmode="layer"
     id="layer3"
     inkscape:label="Table Cloth"
     sodipodi:insensitive="true">
    <rect
       style="color:#000000;clip-rule:nonzero;display:inline;overflow:visible;visibility:visible;opacity:1;isolation:auto;mix-blend-mode:normal;color-interpolation:sRGB;color-interpolation-filters:linearRGB;solid-color:#000000;solid-opacity:1;fill:#ffe5de;fill-opacity:1;fill-rule:evenodd;stroke:#ffe5de;stroke-width:9.51500034;stroke-linecap:butt;stroke-linejoin:miter;stroke-miterlimit:4;stroke-dasharray:none;stroke-dashoffset:0;stroke-opacity:1;color-rendering:auto;image-rendering:auto;shape-rendering:auto;text-rendering:auto;enable-background:accumulate"
       id="rect4144"
       width="790.48499"
       height="410.48495"
       x="4.7575073"
       y="184.75754" />
    <path
       style="fill:#ffe5de;fill-opacity:1;fill-rule:evenodd;stroke:none;stroke-width:1px;stroke-linecap:butt;stroke-linejoin:miter;stroke-opacity:1"
       d="m 0,130.38325 c 0,-2.38325 32,50 32,50 l 31.999999,-50 c 0,-2.38325 32,50 32,50 l 32.000001,-50 32,50 32,-50 32,50 32,-50 32,50 32,-50 32,50 32,-50 c 0,-2.38325 31.99999,50 31.99999,50 0,0 32,-52.38325 32,-50 l 32,50 32,-50 32,50 32,-50 32,50 32,-50 32,50 32,-50 32,50 32,-50 32,50 -799.99999,0 c 0,0 -15.995969,-45.31954 0,-50 z"
       id="path4150"
       inkscape:connector-curvature="0"
       sodipodi:nodetypes="cccccccccccccccccccccccccccc" />
    <path
       style="fill:none;fill-rule:evenodd;stroke:#814d26;stroke-width:9;stroke-linecap:butt;stroke-linejoin:miter;stroke-miterlimit:4;stroke-dasharray:none;stroke-opacity:1"
       d="m 0.71428572,154.70413 30.27556128,45.37709 33.010152,-48.65265 33.010153,49.6628 30.275558,-48.94851 32.71429,44.9079 32,-40.08122 32,41.09138 31.28571,-45.20378 35.74475,48.23423 L 319.28571,155 354.02031,196.04061 384,151.42857 l 31.99999,46.63235 31.28571,-44.48949 31.70414,44.48949 33.01015,-42.10153 30.98985,41.09137 33.01015,-43.47933 32,43.47933 L 639.2857,155 673.01014,195.03046 704.71428,154.28571 735.99999,192 l 32,-37.71429 32,37.71429"
       id="path4167"
       inkscape:connector-curvature="0"
       sodipodi:nodetypes="cccccccccccccccccccccccccc" />
  </g>
  <g
     inkscape:groupmode="layer"
     id="layer4"
     inkscape:label="Candies">
    <g
       id="g8758"
       transform="translate(-82.706237,-173.61996)">
      <path
         sodipodi:nodetypes="ccccc"
         inkscape:connector-curvature="0"
         id="path8611-6-5-4"
         d="m 280.76185,307.14123 13.67163,3.72387 c 0,0 -3.08591,-11.89329 0.22974,-14.35098 -5.28264,-1.76985 -3.23358,-7.39709 -3.96939,-10.88504 l -12.44961,7.53697 z"
         style="fill:none;fill-rule:evenodd;stroke:#000000;stroke-width:1px;stroke-linecap:butt;stroke-linejoin:miter;stroke-opacity:1" />
      <ellipse
         ry="8.9289284"
         rx="14.989851"
         cy="300.42856"
         cx="269.14285"
         id="path8597"
         style="color:#000000;clip-rule:nonzero;display:inline;overflow:visible;visibility:visible;opacity:1;isolation:auto;mix-blend-mode:normal;color-interpolation:sRGB;color-interpolation-filters:linearRGB;solid-color:#000000;solid-opacity:1;fill:#e42b00;fill-opacity:1;fill-rule:evenodd;stroke:#000000;stroke-width:2;stroke-linecap:butt;stroke-linejoin:miter;stroke-miterlimit:4;stroke-dasharray:none;stroke-dashoffset:0;stroke-opacity:1;color-rendering:auto;image-rendering:auto;shape-rendering:auto;text-rendering:auto;enable-background:accumulate" />
      <path
         inkscape:connector-curvature="0"
         id="path8672-3"
         d="m 283.91403,306.79131 c 1.184,-0.8653 2.19051,-2.18714 2.49462,-3.27617 0.21575,-0.77252 0.27721,-1.64841 0.17746,-2.52875 -0.0764,-0.67492 -0.17903,-1.04241 -0.62237,-2.2301 -0.56562,-1.51512 -1.1658,-2.65844 -2.23876,-4.26422 -0.51767,-0.77473 -1.91757,-2.73374 -1.98003,-2.77081 -0.0168,-0.01 -0.52057,0.27719 -1.11933,0.63824 l -1.08867,0.65643 0.73449,0.34339 c 3.45691,1.61621 5.04128,4.69451 4.21015,8.17986 -0.36821,1.54408 -1.4812,3.57236 -2.65651,4.84115 l -0.36253,0.39136 0.88176,0.23855 c 0.48497,0.13122 0.91857,0.22185 0.96354,0.20144 0.0451,-0.0199 0.31776,-0.20958 0.60618,-0.42037 z"
         style="color:#000000;clip-rule:nonzero;display:inline;overflow:visible;visibility:visible;opacity:1;isolation:auto;mix-blend-mode:normal;color-interpolation:sRGB;color-interpolation-filters:linearRGB;solid-color:#000000;solid-opacity:1;fill:#eb6220;fill-opacity:1;fill-rule:evenodd;stroke:#000000;stroke-width:0.17857143;stroke-linecap:butt;stroke-linejoin:miter;stroke-miterlimit:4;stroke-dasharray:none;stroke-dashoffset:0;stroke-opacity:1;color-rendering:auto;image-rendering:auto;shape-rendering:auto;text-rendering:auto;enable-background:accumulate" />
      <path
         id="path8601"
         d="m 269.19639,291.42858 c 0,0 2.24694,9.59678 3.75001,17.58929 l 6.07143,-2.32144 -3.21428,-14.28572 z"
         style="fill:#f66600;fill-opacity:1;fill-rule:evenodd;stroke:#000000;stroke-width:1px;stroke-linecap:butt;stroke-linejoin:miter;stroke-opacity:1"
         inkscape:connector-curvature="0" />
      <path
         sodipodi:nodetypes="cccc"
         inkscape:connector-curvature="0"
         id="path8603"
         d="m 257.85714,294.64286 2.5,12.63392 6.78571,2.09822 c -2.06149,-8.57143 -3.92857,-16.96429 -3.92857,-16.96429 z"
         style="fill:#f66600;fill-opacity:1;fill-rule:evenodd;stroke:#000000;stroke-width:1px;stroke-linecap:butt;stroke-linejoin:miter;stroke-opacity:1" />
      <path
         sodipodi:nodetypes="ccccc"
         inkscape:connector-curvature="0"
         id="path8611-6-5"
         d="m 259.81246,308.27205 -11.52111,8.24892 c 0,0 -1.24593,-12.22378 -5.20962,-13.37397 4.3365,-3.49762 0.45721,-8.06003 -0.0668,-11.58602 l 14.29432,2.73329 z"
         style="fill:none;fill-rule:evenodd;stroke:#000000;stroke-width:1px;stroke-linecap:butt;stroke-linejoin:miter;stroke-opacity:1" />
      <path
         sodipodi:nodetypes="cc"
         inkscape:connector-curvature="0"
         id="path8628-9"
         d="m 253.27338,293.14109 c -2.58596,8.13404 -3.46564,15.18233 4.37993,16.67842"
         style="fill:none;fill-rule:evenodd;stroke:#000000;stroke-width:1px;stroke-linecap:butt;stroke-linejoin:miter;stroke-opacity:1" />
      <path
         inkscape:connector-curvature="0"
         id="path8670"
         d="m 248.65518,315.24214 c 0,-0.4055 -0.50365,-3.15895 -0.83832,-4.58311 -0.82587,-3.51437 -2.02246,-6.16139 -3.28424,-7.26516 l -0.45677,-0.39957 0.31861,-0.37222 c 0.42275,-0.49389 0.91966,-1.45329 1.08854,-2.10165 0.0752,-0.2889 0.13646,-0.89767 0.13646,-1.35713 0,-1.35412 -0.1431,-1.89908 -1.47743,-5.62642 -0.23325,-0.65156 -0.40471,-1.20404 -0.38102,-1.22773 0.0237,-0.0237 1.98987,0.32861 4.36928,0.78288 l 4.3262,0.82595 -0.29286,1.02395 c -0.86017,3.00754 -1.22118,5.15151 -1.22574,7.2796 -0.004,1.69238 0.12846,2.53608 0.57985,3.70396 0.70767,1.83094 2.3266,3.30741 4.35528,3.97203 0.26222,0.0859 0.44302,0.18737 0.40178,0.22547 -0.18096,0.16721 -7.37124,5.28126 -7.48878,5.32637 -0.0963,0.0369 -0.13084,-0.0178 -0.13084,-0.20722 z"
         style="color:#000000;clip-rule:nonzero;display:inline;overflow:visible;visibility:visible;opacity:1;isolation:auto;mix-blend-mode:normal;color-interpolation:sRGB;color-interpolation-filters:linearRGB;solid-color:#000000;solid-opacity:1;fill:#eb6220;fill-opacity:1;fill-rule:evenodd;stroke:#000000;stroke-width:0.17857143;stroke-linecap:butt;stroke-linejoin:miter;stroke-miterlimit:4;stroke-dasharray:none;stroke-dashoffset:0;stroke-opacity:1;color-rendering:auto;image-rendering:auto;shape-rendering:auto;text-rendering:auto;enable-background:accumulate" />
      <path
         inkscape:connector-curvature="0"
         id="path8672"
         d="m 256.73554,309.04098 c -1.41112,-0.39917 -2.81472,-1.28811 -3.47882,-2.20323 -0.4711,-0.64916 -0.83353,-1.4489 -1.04638,-2.30893 -0.16319,-0.65934 -0.19493,-1.03956 -0.19263,-2.30729 0.003,-1.61725 0.16777,-2.89797 0.61484,-4.77678 0.2157,-0.90646 0.84635,-3.23019 0.892,-3.28667 0.0123,-0.0153 0.5845,0.0787 1.27148,0.2088 l 1.24906,0.23653 -0.56908,0.57755 c -2.67836,2.71821 -3.09244,6.15547 -1.10033,9.13371 0.88255,1.31942 2.63182,2.83359 4.17521,3.61405 l 0.47607,0.24074 -0.74363,0.5305 c -0.40899,0.29178 -0.78394,0.52765 -0.83321,0.52416 -0.0493,-0.003 -0.37083,-0.0859 -0.71458,-0.18314 z"
         style="color:#000000;clip-rule:nonzero;display:inline;overflow:visible;visibility:visible;opacity:1;isolation:auto;mix-blend-mode:normal;color-interpolation:sRGB;color-interpolation-filters:linearRGB;solid-color:#000000;solid-opacity:1;fill:#eb6220;fill-opacity:1;fill-rule:evenodd;stroke:#000000;stroke-width:0.17857143;stroke-linecap:butt;stroke-linejoin:miter;stroke-miterlimit:4;stroke-dasharray:none;stroke-dashoffset:0;stroke-opacity:1;color-rendering:auto;image-rendering:auto;shape-rendering:auto;text-rendering:auto;enable-background:accumulate" />
      <path
         inkscape:connector-curvature="0"
         id="path8678"
         d="m 248.74446,315.0505 c 0,-0.44454 -0.52394,-3.20587 -0.89414,-4.7124 -0.80036,-3.25701 -1.85353,-5.6223 -3.04606,-6.84103 l -0.52053,-0.53197 0.31804,-0.41643 c 0.38961,-0.51013 0.88635,-1.52683 1.01049,-2.06821 0.15544,-0.67793 0.11561,-2.28135 -0.0765,-3.08036 -0.0945,-0.39285 -0.49573,-1.65537 -0.89169,-2.80559 -0.39596,-1.15022 -0.70913,-2.10212 -0.69592,-2.11532 0.0373,-0.0373 7.96888,1.42928 8.24692,1.52482 0.0702,0.0241 0.009,0.35951 -0.19543,1.0685 -0.84733,2.94018 -1.14961,4.84659 -1.14772,7.23831 0.002,1.93741 0.0728,2.40641 0.55421,3.64613 0.66744,1.71887 2.10331,3.12258 3.96673,3.87789 0.33087,0.13411 0.60207,0.26972 0.60268,0.30136 9.3e-4,0.049 -5.54921,4.0333 -6.80694,4.88655 l -0.42411,0.28772 0,-0.25997 z"
         style="color:#000000;clip-rule:nonzero;display:inline;overflow:visible;visibility:visible;opacity:1;isolation:auto;mix-blend-mode:normal;color-interpolation:sRGB;color-interpolation-filters:linearRGB;solid-color:#000000;solid-opacity:1;fill:#d83300;fill-opacity:1;fill-rule:evenodd;stroke:#000000;stroke-width:0.17857143;stroke-linecap:butt;stroke-linejoin:miter;stroke-miterlimit:4;stroke-dasharray:none;stroke-dashoffset:0;stroke-opacity:1;color-rendering:auto;image-rendering:auto;shape-rendering:auto;text-rendering:auto;enable-background:accumulate" />
      <path
         sodipodi:nodetypes="cc"
         inkscape:connector-curvature="0"
         id="path8628-9-4"
         d="m 281.52992,290.59696 c 5.25502,6.72567 8.53256,13.02726 1.69805,17.16014"
         style="fill:none;fill-rule:evenodd;stroke:#000000;stroke-width:1px;stroke-linecap:butt;stroke-linejoin:miter;stroke-opacity:1" />
      <path
         inkscape:connector-curvature="0"
         id="path8756"
         d="m 288.97622,308.80492 -4.41942,-1.21161 0.9766,-0.96999 c 2.49297,-2.47609 2.76548,-5.54593 0.84955,-9.57001 -0.77851,-1.63513 -1.28001,-2.47193 -2.61445,-4.36253 -0.58255,-0.82534 -1.01284,-1.54498 -0.95619,-1.59918 0.0566,-0.0542 1.75081,-1.09775 3.7648,-2.31898 l 3.6618,-2.22042 0.077,2.68318 c 0.0834,2.90348 0.24715,3.91464 0.81591,5.03705 0.41642,0.82175 1.29167,1.76075 1.98316,2.12758 l 0.53668,0.28471 -0.345,0.71882 c -0.18975,0.39535 -0.43878,1.25488 -0.55341,1.91006 -0.35933,2.0539 -0.0641,6.18497 0.69208,9.68285 0.14961,0.69208 0.17906,1.03809 0.0877,1.0309 -0.0756,-0.006 -2.1262,-0.55604 -4.55688,-1.22243 z"
         style="color:#000000;clip-rule:nonzero;display:inline;overflow:visible;visibility:visible;opacity:1;isolation:auto;mix-blend-mode:normal;color-interpolation:sRGB;color-interpolation-filters:linearRGB;solid-color:#000000;solid-opacity:1;fill:#d83300;fill-opacity:1;fill-rule:evenodd;stroke:#000000;stroke-width:0.25253814;stroke-linecap:butt;stroke-linejoin:miter;stroke-miterlimit:4;stroke-dasharray:none;stroke-dashoffset:0;stroke-opacity:1;color-rendering:auto;image-rendering:auto;shape-rendering:auto;text-rendering:auto;enable-background:accumulate" />
    </g>
    <g
       transform="matrix(1.0669972,2.2769785,-2.2706779,1.0640447,2674.7591,-1022.3919)"
       id="layer1-6"
       inkscape:label="Layer 1">
      <use
         id="use8732"
         xlink:href="#g4772"
         x="0"
         y="0"
         width="100%"
         height="100%" />
    </g>
  </g>
</svg>
