<?xml version="1.0" encoding="UTF-8" standalone="no"?>
<!-- Created with Inkscape (http://www.inkscape.org/) -->

<svg
   xmlns:dc="http://purl.org/dc/elements/1.1/"
   xmlns:cc="http://creativecommons.org/ns#"
   xmlns:rdf="http://www.w3.org/1999/02/22-rdf-syntax-ns#"
   xmlns:svg="http://www.w3.org/2000/svg"
   xmlns="http://www.w3.org/2000/svg"
   xmlns:sodipodi="http://sodipodi.sourceforge.net/DTD/sodipodi-0.dtd"
   xmlns:inkscape="http://www.inkscape.org/namespaces/inkscape"
   width="800"
   height="600"
   viewBox="0 0 799.99999 600.00005"
   id="svg2"
   version="1.1"
   inkscape:version="0.91 r13725"
   inkscape:export-filename="T:\CandySiege\Images\Game Over Menu\Background.png"
   inkscape:export-xdpi="90"
   inkscape:export-ydpi="90"
   sodipodi:docname="Game Over BG.svg">
  <defs
     id="defs4" />
  <sodipodi:namedview
     id="base"
     pagecolor="#ffe7d6"
     bordercolor="#666666"
     borderopacity="1.0"
     inkscape:pageopacity="1"
     inkscape:pageshadow="2"
     inkscape:zoom="1.979899"
     inkscape:cx="663.82426"
     inkscape:cy="506.61869"
     inkscape:document-units="px"
     inkscape:current-layer="layer1"
     showgrid="false"
     inkscape:window-width="1366"
     inkscape:window-height="705"
     inkscape:window-x="-8"
     inkscape:window-y="-8"
     inkscape:window-maximized="1"
     units="px" />
  <metadata
     id="metadata7">
    <rdf:RDF>
      <cc:Work
         rdf:about="">
        <dc:format>image/svg+xml</dc:format>
        <dc:type
           rdf:resource="http://purl.org/dc/dcmitype/StillImage" />
        <dc:title></dc:title>
      </cc:Work>
    </rdf:RDF>
  </metadata>
  <g
     inkscape:label="Layer 1"
     inkscape:groupmode="layer"
     id="layer1"
     transform="translate(0,-452.36191)"
     style="display:inline">
    <path
       style="display:inline;fill:#ffaaaa;fill-opacity:1;fill-rule:evenodd;stroke:#94471b;stroke-width:1.8398875;stroke-linecap:butt;stroke-linejoin:miter;stroke-miterlimit:4;stroke-dasharray:none;stroke-opacity:1"
       d="m 105.22685,577.44515 c -49.673825,5.37784 -60.866979,34.80728 -54.980243,83.26487 3.940873,32.43977 -61.227936,116.13707 54.980243,104.07869 -130.708888,118.75442 -6.600279,164.81465 0,191.80409 -1.94202,86.5737 36.76936,71.6373 76.4013,86.5609 84.34235,31.7597 106.76931,-50.57707 91.88008,-71.72469 24.83613,62.42639 61.73911,21.49238 84.4358,28.61329 58.32033,18.2975 99.0991,-12.93769 94.19602,-27.28228 16.6446,50.15688 155.56194,51.85088 158.61706,-13.01314 54.55122,-9.82454 14.39492,-54.7379 35.16128,-101.33848 17.27835,-38.77337 19.2818,-78.0256 -35.16128,-95.10654 46.85469,-60.46537 71.0225,-120.93076 0,-181.39614 -40.61963,58.16933 -33.94642,-3.81746 -41.11382,-20.20898 -33.93956,53.16156 -39.954,21.95361 -38.59681,-16.40895 -49.67891,45.35828 -52.02403,21.87093 -43.43294,-21.6584 -0.10548,-84.64637 -161.40091,-70.69134 -144.2445,-10.215 16.83071,-13.77057 -41.52155,-102.37873 -119.15192,-32.53149 -41.36471,37.21749 -94.09623,-10.51156 -118.99027,96.56225 z"
       id="path4472"
       inkscape:connector-curvature="0"
       sodipodi:nodetypes="csccscsccsccccccsc" />
    <path
       style="display:inline;fill:none;fill-rule:evenodd;stroke:#793400;stroke-width:1.62566543;stroke-linecap:butt;stroke-linejoin:miter;stroke-miterlimit:4;stroke-dasharray:none;stroke-opacity:1"
       d="m 487.80902,522.96477 c -2.46848,47.4928 11.76326,38.33013 43.2483,21.21282 5.14496,49.87419 23.34851,31.93915 39.60081,16.61248 6.08185,39.9857 20.43479,43.00263 40.38247,19.67936"
       id="path4474"
       inkscape:connector-curvature="0"
       sodipodi:nodetypes="cccc" />
    <path
       style="color:#000000;clip-rule:nonzero;display:inline;overflow:visible;visibility:visible;opacity:1;isolation:auto;mix-blend-mode:normal;color-interpolation:sRGB;color-interpolation-filters:linearRGB;solid-color:#000000;solid-opacity:1;fill:#ff5555;fill-opacity:1;fill-rule:evenodd;stroke:none;stroke-width:10;stroke-linecap:round;stroke-linejoin:miter;stroke-miterlimit:4;stroke-dasharray:none;stroke-dashoffset:0;stroke-opacity:1;color-rendering:auto;image-rendering:auto;shape-rendering:auto;text-rendering:auto;enable-background:accumulate"
       d="m 489.58646,567.92438 c -0.7627,-0.40341 -1.77144,-1.47044 -2.45359,-2.59536 -2.56141,-4.22395 -2.93392,-12.32407 -1.17409,-25.52737 l 0.44589,-3.34544 0.46594,4.46058 c 1.032,9.87936 3.14548,14.78708 7.33289,17.02778 1.27136,0.68034 2.10359,0.8109 5.05329,0.79283 4.74334,-0.0291 8.63644,-1.37088 18.53586,-6.38866 4.16815,-2.11276 7.62923,-3.79062 7.69123,-3.7286 0.36895,0.36895 -11.72938,9.93543 -16.93423,13.39041 -8.94436,5.93723 -15.21918,7.89409 -18.96319,5.91383 z"
       id="path4509"
       inkscape:connector-curvature="0" />
    <path
       style="color:#000000;clip-rule:nonzero;display:inline;overflow:visible;visibility:visible;opacity:1;isolation:auto;mix-blend-mode:normal;color-interpolation:sRGB;color-interpolation-filters:linearRGB;solid-color:#000000;solid-opacity:1;fill:#ff5555;fill-opacity:1;fill-rule:evenodd;stroke:none;stroke-width:10;stroke-linecap:round;stroke-linejoin:miter;stroke-miterlimit:4;stroke-dasharray:none;stroke-dashoffset:0;stroke-opacity:1;color-rendering:auto;image-rendering:auto;shape-rendering:auto;text-rendering:auto;enable-background:accumulate"
       d="m 540.36993,588.6668 c -4.5922,-1.37048 -7.56073,-10.82931 -8.21967,-26.19064 l -0.20729,-4.83226 0.90249,3.34541 c 1.81563,6.73013 3.59635,10.53063 6.31728,13.48249 2.34372,2.54263 3.96024,3.23698 7.53271,3.23559 2.84708,-0.002 3.21731,-0.0999 6.505,-1.73599 1.91734,-0.95415 4.9497,-2.91165 6.73858,-4.34999 1.78884,-1.43835 3.2525,-2.50535 3.2525,-2.37113 0,0.7738 -7.10436,9.45309 -10.58573,12.93241 -5.40903,5.40587 -9.17023,7.39902 -12.23587,6.48411 z"
       id="path4511"
       inkscape:connector-curvature="0" />
    <path
       style="color:#000000;clip-rule:nonzero;display:inline;overflow:visible;visibility:visible;opacity:1;isolation:auto;mix-blend-mode:normal;color-interpolation:sRGB;color-interpolation-filters:linearRGB;solid-color:#000000;solid-opacity:1;fill:#ff5555;fill-opacity:1;fill-rule:evenodd;stroke:none;stroke-width:10;stroke-linecap:round;stroke-linejoin:miter;stroke-miterlimit:4;stroke-dasharray:none;stroke-dashoffset:0;stroke-opacity:1;color-rendering:auto;image-rendering:auto;shape-rendering:auto;text-rendering:auto;enable-background:accumulate"
       d="m 582.23413,604.3152 c -1.61985,-1.01678 -3.11671,-3.45825 -4.28206,-6.98425 -1.01437,-3.06918 -2.29957,-8.96793 -2.69429,-12.36613 l -0.23747,-2.04442 1.59622,3.13468 c 2.00367,3.93472 5.19187,7.42631 8.07287,8.84111 1.79807,0.883 2.54063,1.02948 5.07962,1.00206 3.67038,-0.0396 6.0021,-0.88256 10.18357,-3.68138 1.65673,-1.10892 3.01226,-1.91843 3.01226,-1.7989 0,0.50271 -5.54741,6.69592 -8.20574,9.16101 -3.97901,3.68975 -6.56607,5.19584 -9.2165,5.36544 -1.62991,0.10431 -2.36157,-0.0349 -3.30848,-0.62922 z"
       id="path4513"
       inkscape:connector-curvature="0" />
    <text
       xml:space="preserve"
       style="font-style:normal;font-weight:normal;font-size:111.54251099px;line-height:125%;font-family:sans-serif;letter-spacing:0px;word-spacing:0px;display:inline;fill:#000000;fill-opacity:1;stroke:none;stroke-width:1px;stroke-linecap:butt;stroke-linejoin:miter;stroke-opacity:1"
       x="339.35532"
       y="552.90442"
       id="text4136"
       sodipodi:linespacing="125%"
       transform="scale(0.70149476,1.4255274)"><tspan
         sodipodi:role="line"
         id="tspan4138"
         x="339.35532"
         y="552.90442"
         style="font-style:normal;font-variant:normal;font-weight:normal;font-stretch:normal;font-family:'Rhum Banane';-inkscape-font-specification:'Rhum Banane'">GAME OVER</tspan></text>
    <path
       style="fill:#d38d5f;fill-rule:evenodd;stroke:#94471b;stroke-width:2.54765439;stroke-linecap:butt;stroke-linejoin:miter;stroke-miterlimit:4;stroke-dasharray:none;stroke-opacity:1"
       d="m 606.6759,970.68422 153.38126,70.57568 3.48134,-5.7168 -153.40158,-71.84403"
       id="path4582"
       inkscape:connector-curvature="0"
       sodipodi:nodetypes="cccc" />
  </g>
  <g
     inkscape:groupmode="layer"
     id="layer2"
     inkscape:label="Candy Cane"
     style="display:inline"
     transform="translate(0,-1525.9842)">
    <path
       style="fill:none;fill-rule:evenodd;stroke:#000000;stroke-width:1.2188071;stroke-linecap:butt;stroke-linejoin:miter;stroke-miterlimit:4;stroke-dasharray:none;stroke-opacity:0.9556962"
       d="m 122.84297,1750.5912 96.43641,236.1579 c 3.72128,13.6446 37.29104,41.2718 23.95012,-12.8525 l -73.83682,-182.0379 c -36.32467,-87.7232 17.82915,-77.288 32.1783,-44.7833 20.87673,70.1857 52.4639,-79.122 -55.53812,-57.2218 -11.38216,6.0066 -38.68086,18.7399 -23.18989,60.7376 z"
       id="path4140"
       inkscape:connector-curvature="0"
       sodipodi:nodetypes="ccccccc" />
    <path
       style="fill:none;fill-rule:evenodd;stroke:#000000;stroke-width:1.2188071;stroke-linecap:butt;stroke-linejoin:miter;stroke-miterlimit:4;stroke-dasharray:none;stroke-opacity:1"
       d="m 202.27448,1945.555 34.05004,11.1541"
       id="path4151"
       inkscape:connector-curvature="0" />
    <path
       style="fill:none;fill-rule:evenodd;stroke:#000000;stroke-width:1.2188071;stroke-linecap:butt;stroke-linejoin:miter;stroke-miterlimit:4;stroke-dasharray:none;stroke-opacity:1"
       d="m 210.6028,1966.3493 33.57765,10.9855"
       id="path4153"
       inkscape:connector-curvature="0" />
    <path
       style="fill:none;fill-rule:evenodd;stroke:#000000;stroke-width:1.2188071;stroke-linecap:butt;stroke-linejoin:miter;stroke-miterlimit:4;stroke-dasharray:none;stroke-opacity:1"
       d="m 191.92455,1920.0446 34.4204,11.8099"
       id="path4155"
       inkscape:connector-curvature="0" />
    <path
       style="fill:none;fill-rule:evenodd;stroke:#000000;stroke-width:1.2188071;stroke-linecap:butt;stroke-linejoin:miter;stroke-miterlimit:4;stroke-dasharray:none;stroke-opacity:1"
       d="m 183.30581,1897.7544 32.94016,9.6206"
       id="path4157"
       inkscape:connector-curvature="0" />
    <path
       style="fill:none;fill-rule:evenodd;stroke:#000000;stroke-width:1.2188071;stroke-linecap:butt;stroke-linejoin:miter;stroke-miterlimit:4;stroke-dasharray:none;stroke-opacity:1"
       d="m 171.60909,1871.1279 33.63432,9.3591"
       id="path4157-6"
       inkscape:connector-curvature="0" />
    <path
       style="fill:none;fill-rule:evenodd;stroke:#000000;stroke-width:1.2188071;stroke-linecap:butt;stroke-linejoin:miter;stroke-miterlimit:4;stroke-dasharray:none;stroke-opacity:1"
       d="m 163.45398,1848.6642 32.94016,9.6206"
       id="path4157-7"
       inkscape:connector-curvature="0" />
    <path
       style="fill:none;fill-rule:evenodd;stroke:#000000;stroke-width:1.2188071;stroke-linecap:butt;stroke-linejoin:miter;stroke-miterlimit:4;stroke-dasharray:none;stroke-opacity:1"
       d="m 153.73555,1824.8488 32.94016,9.6206"
       id="path4157-0"
       inkscape:connector-curvature="0" />
    <path
       style="fill:none;fill-rule:evenodd;stroke:#000000;stroke-width:1.2188071;stroke-linecap:butt;stroke-linejoin:miter;stroke-miterlimit:4;stroke-dasharray:none;stroke-opacity:1"
       d="m 143.36075,1799.9873 32.94017,9.6207"
       id="path4157-2"
       inkscape:connector-curvature="0" />
    <path
       style="fill:none;fill-rule:evenodd;stroke:#000000;stroke-width:1.2188071;stroke-linecap:butt;stroke-linejoin:miter;stroke-miterlimit:4;stroke-dasharray:none;stroke-opacity:1"
       d="m 219.14871,1986.7091 27.0082,7.5089"
       id="path4157-3"
       inkscape:connector-curvature="0" />
    <path
       style="fill:none;fill-rule:evenodd;stroke:#000000;stroke-width:1.2188071;stroke-linecap:butt;stroke-linejoin:miter;stroke-miterlimit:4;stroke-dasharray:none;stroke-opacity:1"
       d="m 132.43675,1774.3638 34.24905,9.1276"
       id="path4157-28"
       inkscape:connector-curvature="0" />
    <path
       style="fill:none;fill-rule:evenodd;stroke:#000000;stroke-width:1.2188071;stroke-linecap:butt;stroke-linejoin:miter;stroke-miterlimit:4;stroke-dasharray:none;stroke-opacity:1"
       d="m 123.31097,1750.008 35.82871,10.4644"
       id="path4157-9"
       inkscape:connector-curvature="0" />
    <path
       style="fill:none;fill-rule:evenodd;stroke:#000000;stroke-width:1.2188071;stroke-linecap:butt;stroke-linejoin:miter;stroke-miterlimit:4;stroke-dasharray:none;stroke-opacity:1"
       d="m 118.43212,1729.2285 38.31518,10.4934"
       id="path4157-92"
       inkscape:connector-curvature="0" />
    <path
       style="fill:none;fill-rule:evenodd;stroke:#000000;stroke-width:1.2188071;stroke-linecap:butt;stroke-linejoin:miter;stroke-miterlimit:4;stroke-dasharray:none;stroke-opacity:1"
       d="m 202.12532,1749.1745 19.21134,6.3739"
       id="path4157-8"
       inkscape:connector-curvature="0" />
    <path
       style="fill:none;fill-rule:evenodd;stroke:#000000;stroke-width:1.2188071;stroke-linecap:butt;stroke-linejoin:miter;stroke-miterlimit:4;stroke-dasharray:none;stroke-opacity:1"
       d="m 122.24293,1709.0774 47.71842,14.2946"
       id="path4157-92-5"
       inkscape:connector-curvature="0" />
    <path
       style="fill:none;fill-rule:evenodd;stroke:#000000;stroke-width:1.2188071;stroke-linecap:butt;stroke-linejoin:miter;stroke-miterlimit:4;stroke-dasharray:none;stroke-opacity:1"
       d="m 188.4244,1730.1265 34.33702,9.4039"
       id="path4157-92-6"
       inkscape:connector-curvature="0" />
    <path
       style="fill:none;fill-rule:evenodd;stroke:#000000;stroke-width:1.2188071;stroke-linecap:butt;stroke-linejoin:miter;stroke-miterlimit:4;stroke-dasharray:none;stroke-opacity:1"
       d="m 137.77313,1694.3668 77.95854,21.35"
       id="path4157-92-2"
       inkscape:connector-curvature="0" />
    <path
       style="color:#000000;clip-rule:nonzero;display:inline;overflow:visible;visibility:visible;opacity:1;isolation:auto;mix-blend-mode:normal;color-interpolation:sRGB;color-interpolation-filters:linearRGB;solid-color:#000000;solid-opacity:1;fill:#d40000;fill-opacity:1;fill-rule:evenodd;stroke:#000000;stroke-width:2.46236157;stroke-linecap:round;stroke-linejoin:miter;stroke-miterlimit:4;stroke-dasharray:none;stroke-dashoffset:0;stroke-opacity:0.9556962;color-rendering:auto;image-rendering:auto;shape-rendering:auto;text-rendering:auto;enable-background:accumulate"
       d="m 232.68162,1989.6567 c -7.05809,-1.9701 -12.86476,-3.6004 -12.90372,-3.623 -0.17892,-0.1041 -7.35927,-17.8512 -7.29685,-18.0352 0.0389,-0.1145 6.987,2.0471 15.44025,4.8036 13.50111,4.4026 15.40202,5.0979 15.63675,5.7193 0.6585,1.7434 2.32799,13.5987 2.03794,14.472 -0.0448,0.1349 -5.85627,-1.3666 -12.91437,-3.3367 z"
       id="path4249"
       inkscape:connector-curvature="0" />
    <path
       style="color:#000000;clip-rule:nonzero;display:inline;overflow:visible;visibility:visible;opacity:1;isolation:auto;mix-blend-mode:normal;color-interpolation:sRGB;color-interpolation-filters:linearRGB;solid-color:#000000;solid-opacity:1;fill:#d40000;fill-opacity:1;fill-rule:evenodd;stroke:#000000;stroke-width:2.46236157;stroke-linecap:round;stroke-linejoin:miter;stroke-miterlimit:4;stroke-dasharray:none;stroke-dashoffset:0;stroke-opacity:0.9556962;color-rendering:auto;image-rendering:auto;shape-rendering:auto;text-rendering:auto;enable-background:accumulate"
       d="m 219.22169,1950.2989 c -8.51483,-2.7832 -15.67513,-5.1648 -15.91177,-5.2927 -0.32157,-0.1739 -1.58646,-3.0508 -5.00716,-11.3887 -2.51732,-6.1358 -4.63434,-11.4031 -4.70451,-11.7051 -0.10178,-0.4381 3.06344,0.5484 15.64838,4.8772 8.67677,2.9844 15.92701,5.4678 16.11163,5.5187 0.33746,0.093 9.54237,22.4688 9.40717,22.8673 -0.0343,0.101 -7.02892,-2.0936 -15.54374,-4.8767 z"
       id="path4251"
       inkscape:connector-curvature="0" />
    <path
       style="color:#000000;clip-rule:nonzero;display:inline;overflow:visible;visibility:visible;opacity:1;isolation:auto;mix-blend-mode:normal;color-interpolation:sRGB;color-interpolation-filters:linearRGB;solid-color:#000000;solid-opacity:1;fill:#d40000;fill-opacity:1;fill-rule:evenodd;stroke:#000000;stroke-width:2.46236157;stroke-linecap:round;stroke-linejoin:miter;stroke-miterlimit:4;stroke-dasharray:none;stroke-dashoffset:0;stroke-opacity:0.9556962;color-rendering:auto;image-rendering:auto;shape-rendering:auto;text-rendering:auto;enable-background:accumulate"
       d="m 199.26536,1901.5958 -15.71575,-4.5886 -0.65615,-1.2943 c -0.77855,-1.5358 -9.49074,-22.9907 -9.40724,-23.1666 0.0317,-0.067 7.09783,1.8461 15.7026,4.2506 l 15.64502,4.3717 0.58367,1.3643 c 0.91879,2.1473 9.59072,23.5003 9.57643,23.58 -0.007,0.039 -7.08491,-1.9933 -15.72858,-4.5171 z"
       id="path4253"
       inkscape:connector-curvature="0" />
    <path
       style="color:#000000;clip-rule:nonzero;display:inline;overflow:visible;visibility:visible;opacity:1;isolation:auto;mix-blend-mode:normal;color-interpolation:sRGB;color-interpolation-filters:linearRGB;solid-color:#000000;solid-opacity:1;fill:#d40000;fill-opacity:1;fill-rule:evenodd;stroke:#000000;stroke-width:2.46236157;stroke-linecap:round;stroke-linejoin:miter;stroke-miterlimit:4;stroke-dasharray:none;stroke-dashoffset:0;stroke-opacity:0.9556962;color-rendering:auto;image-rendering:auto;shape-rendering:auto;text-rendering:auto;enable-background:accumulate"
       d="m 179.11332,1852.427 -15.89971,-4.6531 -4.39319,-10.818 c -2.41624,-5.9499 -4.37306,-10.8772 -4.34848,-10.9497 0.0411,-0.1211 31.15908,8.879 31.61466,9.1438 0.1837,0.1068 9.03529,21.7064 8.95931,21.8625 -0.0181,0.037 -7.18774,-2.0262 -15.93259,-4.5855 z"
       id="path4255"
       inkscape:connector-curvature="0" />
    <path
       style="color:#000000;clip-rule:nonzero;display:inline;overflow:visible;visibility:visible;opacity:1;isolation:auto;mix-blend-mode:normal;color-interpolation:sRGB;color-interpolation-filters:linearRGB;solid-color:#000000;solid-opacity:1;fill:#d40000;fill-opacity:1;fill-rule:evenodd;stroke:#000000;stroke-width:2.46236157;stroke-linecap:round;stroke-linejoin:miter;stroke-miterlimit:4;stroke-dasharray:none;stroke-dashoffset:0;stroke-opacity:0.9556962;color-rendering:auto;image-rendering:auto;shape-rendering:auto;text-rendering:auto;enable-background:accumulate"
       d="m 159.48756,1803.8941 c -8.49504,-2.4995 -15.59569,-4.5889 -15.77921,-4.6429 -0.22662,-0.067 -1.87351,-3.8733 -5.13385,-11.8665 -2.64011,-6.4725 -4.79706,-11.7909 -4.79327,-11.8186 0.004,-0.027 7.15258,1.8514 15.88613,4.1757 l 15.87916,4.226 2.92989,7.3467 c 1.61144,4.0406 3.82135,9.5201 4.91094,12.1765 1.16531,2.841 1.89144,4.8542 1.76341,4.8888 -0.11973,0.032 -7.16815,-1.9861 -15.6632,-4.4857 z"
       id="path4257"
       inkscape:connector-curvature="0" />
    <path
       style="color:#000000;clip-rule:nonzero;display:inline;overflow:visible;visibility:visible;opacity:1;isolation:auto;mix-blend-mode:normal;color-interpolation:sRGB;color-interpolation-filters:linearRGB;solid-color:#000000;solid-opacity:1;fill:#d40000;fill-opacity:1;fill-rule:evenodd;stroke:#000000;stroke-width:2.46236157;stroke-linecap:round;stroke-linejoin:miter;stroke-miterlimit:4;stroke-dasharray:none;stroke-dashoffset:0;stroke-opacity:0.9556962;color-rendering:auto;image-rendering:auto;shape-rendering:auto;text-rendering:auto;enable-background:accumulate"
       d="m 140.90889,1754.3224 c -9.31187,-2.7399 -17.13768,-4.9786 -17.3907,-4.975 -0.53845,0.01 -0.60546,-0.1539 -1.88829,-4.5514 -1.69457,-5.8089 -3.13103,-14.5451 -2.38172,-14.485 0.30765,0.024 34.97152,9.4681 36.52708,9.9511 l 0.65595,0.2037 -0.0278,3.003 c -0.0339,3.6724 0.40436,8.5235 1.14379,12.6586 0.30522,1.7068 0.49584,3.1196 0.42363,3.1399 -0.0722,0.02 -7.75008,-2.205 -17.06196,-4.9449 z"
       id="path4259"
       inkscape:connector-curvature="0" />
    <path
       style="color:#000000;clip-rule:nonzero;display:inline;overflow:visible;visibility:visible;opacity:1;isolation:auto;mix-blend-mode:normal;color-interpolation:sRGB;color-interpolation-filters:linearRGB;solid-color:#000000;solid-opacity:1;fill:#d40000;fill-opacity:1;fill-rule:evenodd;stroke:#000000;stroke-width:2.46236157;stroke-linecap:round;stroke-linejoin:miter;stroke-miterlimit:4;stroke-dasharray:none;stroke-dashoffset:0;stroke-opacity:0.9556962;color-rendering:auto;image-rendering:auto;shape-rendering:auto;text-rendering:auto;enable-background:accumulate"
       d="m 205.01993,1733.8807 c -15.94949,-4.3944 -16.38418,-4.5346 -18.55928,-5.9854 -5.01233,-3.3431 -10.17877,-5.1857 -14.74706,-5.2596 -1.48593,-0.024 -47.35984,-13.5435 -47.53424,-14.0088 -0.16416,-0.4381 3.72944,-5.2146 6.00174,-7.3628 2.21156,-2.0908 6.53664,-5.4089 7.54086,-5.7853 0.37685,-0.1413 77.13909,20.6067 77.95892,21.0714 0.0922,0.053 1.03106,2.4122 2.08618,5.2443 1.34694,3.6152 2.09912,5.9957 2.52499,7.9907 0.68929,3.229 1.43708,8.5194 1.21067,8.5651 -0.0829,0.016 -7.50017,-1.9946 -16.48278,-4.4696 z"
       id="path4261"
       inkscape:connector-curvature="0" />
    <path
       style="color:#000000;clip-rule:nonzero;display:inline;overflow:visible;visibility:visible;opacity:1;isolation:auto;mix-blend-mode:normal;color-interpolation:sRGB;color-interpolation-filters:linearRGB;solid-color:#000000;solid-opacity:1;fill:#f2f2f2;fill-opacity:1;fill-rule:evenodd;stroke:#000000;stroke-width:1.23118079;stroke-linecap:round;stroke-linejoin:miter;stroke-miterlimit:4;stroke-dasharray:none;stroke-dashoffset:0;stroke-opacity:0.9556962;color-rendering:auto;image-rendering:auto;shape-rendering:auto;text-rendering:auto;enable-background:accumulate"
       d="m 177.32509,1704.4778 c -20.55226,-5.6398 -37.41293,-10.2803 -37.46819,-10.3124 -0.1302,-0.076 1.12678,-0.8042 4.07268,-2.3604 l 2.37145,-1.2527 2.28796,-0.4178 c 17.80114,-3.2504 32.82755,-1.9657 44.84406,3.8341 8.08601,3.9026 14.84535,10.0345 19.70274,17.8737 0.95957,1.5486 1.70157,2.8841 1.60438,2.8878 -0.0261,0 -16.86285,-4.6125 -37.41508,-10.2523 z"
       id="path4311"
       inkscape:connector-curvature="0" />
    <path
       style="color:#000000;clip-rule:nonzero;display:inline;overflow:visible;visibility:visible;opacity:1;isolation:auto;mix-blend-mode:normal;color-interpolation:sRGB;color-interpolation-filters:linearRGB;solid-color:#000000;solid-opacity:1;fill:#f2f2f2;fill-opacity:1;fill-rule:evenodd;stroke:#000000;stroke-width:1.23118079;stroke-linecap:round;stroke-linejoin:miter;stroke-miterlimit:4;stroke-dasharray:none;stroke-dashoffset:0;stroke-opacity:0.9556962;color-rendering:auto;image-rendering:auto;shape-rendering:auto;text-rendering:auto;enable-background:accumulate"
       d="m 137.80135,1733.8038 c -10.29216,-2.8346 -18.77389,-5.1597 -18.84831,-5.1668 -0.0745,-0.01 -0.11733,-0.8508 -0.0954,-1.8743 0.12144,-5.6518 1.39132,-11.0437 3.65397,-15.5148 0.54345,-1.0739 0.57972,-1.1131 0.96287,-1.0418 0.21898,0.04 10.14853,2.9976 22.06567,6.5707 l 21.66753,6.4965 -1.43779,0.6435 c -2.68573,1.2019 -4.57468,2.9537 -6.25061,5.7966 -1.167,1.9797 -2.23872,5.3002 -2.62092,8.1207 -0.079,0.583 -0.19774,1.0742 -0.26387,1.0917 -0.0661,0.017 -8.54108,-2.2874 -18.83322,-5.122 z"
       id="path4313"
       inkscape:connector-curvature="0" />
    <path
       style="color:#000000;clip-rule:nonzero;display:inline;overflow:visible;visibility:visible;opacity:1;isolation:auto;mix-blend-mode:normal;color-interpolation:sRGB;color-interpolation-filters:linearRGB;solid-color:#000000;solid-opacity:1;fill:#f2f2f2;fill-opacity:1;fill-rule:evenodd;stroke:#000000;stroke-width:1.23118079;stroke-linecap:round;stroke-linejoin:miter;stroke-miterlimit:4;stroke-dasharray:none;stroke-dashoffset:0;stroke-opacity:0.9556962;color-rendering:auto;image-rendering:auto;shape-rendering:auto;text-rendering:auto;enable-background:accumulate"
       d="m 211.7336,1751.6208 -9.04944,-3 -0.41922,-1.2363 c -1.40813,-4.1532 -5.69942,-10.4934 -9.81321,-14.4989 -0.65286,-0.6357 -1.17932,-1.1759 -1.16989,-1.2004 0.0346,-0.09 30.35488,8.2693 30.44597,8.3942 0.23836,0.3267 0.25913,5.351 0.0336,8.134 -0.16037,1.9789 -0.67878,5.6494 -0.86417,6.1185 -0.10426,0.2638 -0.90384,0.027 -9.16367,-2.7111 z"
       id="path4315"
       inkscape:connector-curvature="0" />
    <path
       style="color:#000000;clip-rule:nonzero;display:inline;overflow:visible;visibility:visible;opacity:1;isolation:auto;mix-blend-mode:normal;color-interpolation:sRGB;color-interpolation-filters:linearRGB;solid-color:#000000;solid-opacity:1;fill:#f2f2f2;fill-opacity:1;fill-rule:evenodd;stroke:#000000;stroke-width:2.46236157;stroke-linecap:round;stroke-linejoin:miter;stroke-miterlimit:4;stroke-dasharray:none;stroke-dashoffset:0;stroke-opacity:0.9556962;color-rendering:auto;image-rendering:auto;shape-rendering:auto;text-rendering:auto;enable-background:accumulate"
       d="m 149.14744,1778.0353 c -8.40229,-2.2521 -15.5036,-4.2028 -15.78069,-4.335 -0.42775,-0.2042 -1.18608,-1.9222 -5.02176,-11.377 -2.48487,-6.1251 -4.49321,-11.1872 -4.46298,-11.2492 0.0302,-0.062 7.73733,2.1401 17.12691,4.8934 9.38957,2.7533 17.16795,5.0125 17.28527,5.0205 0.11732,0.01 0.5377,1.3446 0.93417,2.9705 0.84806,3.4779 2.38575,8.6594 4.20458,14.1681 0.71775,2.1739 1.23445,3.9639 1.14818,3.9779 -0.0863,0.014 -7.03141,-1.8172 -15.43368,-4.0692 z"
       id="path4317"
       inkscape:connector-curvature="0" />
    <path
       style="color:#000000;clip-rule:nonzero;display:inline;overflow:visible;visibility:visible;opacity:1;isolation:auto;mix-blend-mode:normal;color-interpolation:sRGB;color-interpolation-filters:linearRGB;solid-color:#000000;solid-opacity:1;fill:#f2f2f2;fill-opacity:1;fill-rule:evenodd;stroke:#000000;stroke-width:2.46236157;stroke-linecap:round;stroke-linejoin:miter;stroke-miterlimit:4;stroke-dasharray:none;stroke-dashoffset:0;stroke-opacity:0.9556962;color-rendering:auto;image-rendering:auto;shape-rendering:auto;text-rendering:auto;enable-background:accumulate"
       d="m 169.65428,1828.6976 c -8.69518,-2.5487 -15.88754,-4.6793 -15.983,-4.7347 -0.1818,-0.1058 -9.45162,-22.5972 -9.38919,-22.7812 0.0406,-0.1197 31.22124,8.9455 31.6739,9.2086 0.21409,0.1245 9.58356,22.6705 9.51817,22.9038 -0.006,0.021 -7.1247,-2.0479 -15.81988,-4.5965 z"
       id="path4319"
       inkscape:connector-curvature="0" />
    <path
       style="color:#000000;clip-rule:nonzero;display:inline;overflow:visible;visibility:visible;opacity:1;isolation:auto;mix-blend-mode:normal;color-interpolation:sRGB;color-interpolation-filters:linearRGB;solid-color:#000000;solid-opacity:1;fill:#f2f2f2;fill-opacity:1;fill-rule:evenodd;stroke:#000000;stroke-width:2.46236157;stroke-linecap:round;stroke-linejoin:miter;stroke-miterlimit:4;stroke-dasharray:none;stroke-dashoffset:0;stroke-opacity:0.9556962;color-rendering:auto;image-rendering:auto;shape-rendering:auto;text-rendering:auto;enable-background:accumulate"
       d="m 188.57873,1875.0388 c -8.49814,-2.3679 -15.59396,-4.3883 -15.76847,-4.4897 -0.25132,-0.1462 -8.87876,-20.7189 -8.75702,-20.8817 0.0177,-0.024 7.17864,2.0487 15.91314,4.6054 l 15.88089,4.6486 0.44969,1.0474 c 1.11886,2.6058 7.81447,19.2173 7.776,19.2918 -0.0236,0.046 -6.9961,-1.8539 -15.49423,-4.2218 z"
       id="path4321"
       inkscape:connector-curvature="0" />
    <path
       style="color:#000000;clip-rule:nonzero;display:inline;overflow:visible;visibility:visible;opacity:1;isolation:auto;mix-blend-mode:normal;color-interpolation:sRGB;color-interpolation-filters:linearRGB;solid-color:#000000;solid-opacity:1;fill:#f2f2f2;fill-opacity:1;fill-rule:evenodd;stroke:#000000;stroke-width:2.46236157;stroke-linecap:round;stroke-linejoin:miter;stroke-miterlimit:4;stroke-dasharray:none;stroke-dashoffset:0;stroke-opacity:0.9556962;color-rendering:auto;image-rendering:auto;shape-rendering:auto;text-rendering:auto;enable-background:accumulate"
       d="m 208.70951,1924.9827 c -8.83686,-3.0297 -16.0967,-5.5195 -16.13301,-5.5328 -0.0844,-0.031 -8.43019,-20.4063 -8.41413,-20.5422 0.0146,-0.1241 30.96255,8.9094 31.40636,9.1674 0.27334,0.159 9.11275,21.5 9.18209,22.1685 0.0141,0.1362 -7.20445,-2.2312 -16.04131,-5.2609 z"
       id="path4323"
       inkscape:connector-curvature="0" />
    <path
       style="color:#000000;clip-rule:nonzero;display:inline;overflow:visible;visibility:visible;opacity:1;isolation:auto;mix-blend-mode:normal;color-interpolation:sRGB;color-interpolation-filters:linearRGB;solid-color:#000000;solid-opacity:1;fill:#f2f2f2;fill-opacity:1;fill-rule:evenodd;stroke:#000000;stroke-width:2.46236157;stroke-linecap:round;stroke-linejoin:miter;stroke-miterlimit:4;stroke-dasharray:none;stroke-dashoffset:0;stroke-opacity:0.9556962;color-rendering:auto;image-rendering:auto;shape-rendering:auto;text-rendering:auto;enable-background:accumulate"
       d="m 227.29728,1971.0064 c -8.44581,-2.7755 -15.48007,-5.1186 -15.6317,-5.2067 -0.30992,-0.1801 -7.78906,-18.3564 -7.68251,-18.6704 0.0631,-0.1861 30.51482,9.6485 31.43204,10.151 0.28974,0.1589 1.40164,2.6426 3.78449,8.4538 3.16406,7.7162 4.02941,10.17 3.62346,10.2748 -0.0933,0.024 -7.07999,-2.2269 -15.52578,-5.0025 z"
       id="path4325"
       inkscape:connector-curvature="0" />
    <path
       style="color:#000000;clip-rule:nonzero;display:inline;overflow:visible;visibility:visible;opacity:1;isolation:auto;mix-blend-mode:normal;color-interpolation:sRGB;color-interpolation-filters:linearRGB;solid-color:#000000;solid-opacity:1;fill:#f2f2f2;fill-opacity:1;fill-rule:evenodd;stroke:#000000;stroke-width:2.46236157;stroke-linecap:round;stroke-linejoin:miter;stroke-miterlimit:4;stroke-dasharray:none;stroke-dashoffset:0;stroke-opacity:0.9556962;color-rendering:auto;image-rendering:auto;shape-rendering:auto;text-rendering:auto;enable-background:accumulate"
       d="m 239.66469,2005.2083 c -4.05698,-0.2834 -8.88823,-3.3685 -13.65843,-8.7216 -2.80726,-3.1505 -6.21356,-8.569 -5.34284,-8.4992 0.31612,0.025 24.67421,6.7637 24.91161,6.8915 0.23843,0.1283 -0.17986,3.7041 -0.62459,5.3395 -0.86905,3.1956 -2.94297,5.1535 -5.28575,4.9898 z"
       id="path4327"
       inkscape:connector-curvature="0" />
    <path
       style="color:#000000;clip-rule:nonzero;display:inline;overflow:visible;visibility:visible;opacity:1;isolation:auto;mix-blend-mode:normal;color-interpolation:sRGB;color-interpolation-filters:linearRGB;solid-color:#000000;solid-opacity:1;fill:#d40000;fill-opacity:1;fill-rule:evenodd;stroke:#000000;stroke-width:1.2188071;stroke-linecap:round;stroke-linejoin:miter;stroke-miterlimit:4;stroke-dasharray:none;stroke-dashoffset:0;stroke-opacity:0.9556962;color-rendering:auto;image-rendering:auto;shape-rendering:auto;text-rendering:auto;enable-background:accumulate"
       d="m 212.14968,1764.4282 c -0.95566,-0.4122 -2.3648,-1.5126 -3.13146,-2.4453 -1.45078,-1.7651 -5.73708,-10.92 -5.20593,-11.1192 0.52948,-0.1984 16.01567,5.1604 16.18002,5.5988 0.279,0.7444 -1.84254,5.3139 -3.11336,6.7056 -1.70201,1.8639 -2.70786,2.1319 -4.72927,1.2601 z"
       id="path4329"
       inkscape:connector-curvature="0" />
    <path
       style="fill:none;fill-rule:evenodd;stroke:#000000;stroke-width:1.29770505;stroke-linecap:butt;stroke-linejoin:miter;stroke-miterlimit:4;stroke-dasharray:none;stroke-opacity:1"
       d="m 159.7623,1688.571 41.7939,10.4238"
       id="path4335"
       inkscape:connector-curvature="0" />
    <path
       style="color:#000000;clip-rule:nonzero;display:inline;overflow:visible;visibility:visible;opacity:1;isolation:auto;mix-blend-mode:normal;color-interpolation:sRGB;color-interpolation-filters:linearRGB;solid-color:#000000;solid-opacity:1;fill:#d40000;fill-opacity:1;fill-rule:evenodd;stroke:#000000;stroke-width:1.23118079;stroke-linecap:round;stroke-linejoin:miter;stroke-miterlimit:4;stroke-dasharray:none;stroke-dashoffset:0;stroke-opacity:0.9556962;color-rendering:auto;image-rendering:auto;shape-rendering:auto;text-rendering:auto;enable-background:accumulate"
       d="m 181.66694,1693.2696 c -8.76624,-2.1925 -15.89229,-4.029 -15.83565,-4.0813 0.1341,-0.1239 4.17586,-0.028 6.61002,0.1557 7.94044,0.6012 14.82128,2.3811 21.06489,5.449 1.81909,0.8939 4.39489,2.3781 4.21592,2.4293 -0.064,0.018 -7.28892,-1.7603 -16.05518,-3.9527 z"
       id="path4337"
       inkscape:connector-curvature="0" />
    <path
       style="fill:none;fill-rule:evenodd;stroke:#000000;stroke-width:1.2188071;stroke-linecap:butt;stroke-linejoin:miter;stroke-miterlimit:4;stroke-dasharray:none;stroke-opacity:1"
       d="m 230.9593,2000.2238 12.9754,2.8898"
       id="path4339"
       inkscape:connector-curvature="0" />
    <path
       style="color:#000000;clip-rule:nonzero;display:inline;overflow:visible;visibility:visible;opacity:1;isolation:auto;mix-blend-mode:normal;color-interpolation:sRGB;color-interpolation-filters:linearRGB;solid-color:#000000;solid-opacity:1;fill:#d40000;fill-opacity:1;fill-rule:evenodd;stroke:none;stroke-width:9.09137249;stroke-linecap:round;stroke-linejoin:miter;stroke-miterlimit:4;stroke-dasharray:none;stroke-dashoffset:0;stroke-opacity:0.9556962;color-rendering:auto;image-rendering:auto;shape-rendering:auto;text-rendering:auto;enable-background:accumulate"
       d="m 239.59863,2003.7874 c -0.9716,-0.056 -1.6766,-0.2225 -2.89913,-0.684 -1.19815,-0.4524 -2.71558,-1.2333 -2.66817,-1.3732 0.0339,-0.1 6.91256,1.397 7.20817,1.5688 0.30775,0.1789 -0.87971,0.5323 -1.64087,0.4884 z"
       id="path4343"
       inkscape:connector-curvature="0" />
  </g>
  <g
     inkscape:groupmode="layer"
     id="layer3"
     inkscape:label="Retry"
     transform="translate(0,-1525.9842)">
    <text
       xml:space="preserve"
       style="font-style:normal;font-weight:normal;font-size:53.16719818px;line-height:125%;font-family:sans-serif;letter-spacing:0px;word-spacing:0px;fill:#ffffff;fill-opacity:1;stroke:#000000;stroke-width:1.37949944;stroke-linecap:butt;stroke-linejoin:miter;stroke-miterlimit:4;stroke-dasharray:none;stroke-opacity:1"
       x="366.4668"
       y="1926.4718"
       id="text4599"
       sodipodi:linespacing="125%"
       transform="scale(0.99207225,1.0079911)"><tspan
         sodipodi:role="line"
         id="tspan4601"
         x="366.4668"
         y="1926.4718"
         style="font-style:normal;font-variant:normal;font-weight:normal;font-stretch:normal;font-family:'Rhum Banane';-inkscape-font-specification:'Rhum Banane';fill:#ffffff;fill-opacity:1;stroke:#000000;stroke-width:1.37949944;stroke-miterlimit:4;stroke-dasharray:none;stroke-opacity:1">Retry</tspan></text>
    <text
       xml:space="preserve"
       style="font-style:normal;font-weight:normal;font-size:55.77069473px;line-height:125%;font-family:sans-serif;letter-spacing:0px;word-spacing:0px;fill:#ffffff;fill-opacity:1;stroke:#000000;stroke-width:1.44705105;stroke-linecap:butt;stroke-linejoin:miter;stroke-miterlimit:4;stroke-dasharray:none;stroke-opacity:1"
       x="365.40619"
       y="1990.7854"
       id="text4599-3"
       sodipodi:linespacing="125%"
       transform="scale(0.99207226,1.0079911)"><tspan
         sodipodi:role="line"
         id="tspan4601-2"
         x="365.40619"
         y="1990.7854"
         style="font-style:normal;font-variant:normal;font-weight:normal;font-stretch:normal;font-family:'Rhum Banane';-inkscape-font-specification:'Rhum Banane';fill:#ffffff;fill-opacity:1;stroke:#000000;stroke-width:1.44705105;stroke-miterlimit:4;stroke-dasharray:none;stroke-opacity:1">Quit</tspan><tspan
         sodipodi:role="line"
         x="365.40619"
         y="2060.4988"
         style="font-style:normal;font-variant:normal;font-weight:normal;font-stretch:normal;font-family:'Rhum Banane';-inkscape-font-specification:'Rhum Banane';fill:#ffffff;fill-opacity:1;stroke:#000000;stroke-width:1.44705105;stroke-miterlimit:4;stroke-dasharray:none;stroke-opacity:1"
         id="tspan4642" /></text>
  </g>
</svg>
